<svg width="21" height="22" viewBox="0 0 21 22" fill="none" xmlns="http://www.w3.org/2000/svg">
<path d="M1.16466 0H19.7993C20.1081 0 20.4044 0.105357 20.6228 0.292893C20.8412 0.48043 20.9639 0.734784 20.9639 1V5C20.9639 5.26522 20.8412 5.51957 20.6228 5.70711C20.4044 5.89464 20.1081 6 19.7993 6H1.16466C0.855775 6 0.559538 5.89464 0.341122 5.70711C0.122705 5.51957 0 5.26522 0 5V1C0 0.734784 0.122705 0.48043 0.341122 0.292893C0.559538 0.105357 0.855775 0 1.16466 0ZM1.16466 8H19.7993C20.1081 8 20.4044 8.10536 20.6228 8.29289C20.8412 8.48043 20.9639 8.73478 20.9639 9V13C20.9639 13.2652 20.8412 13.5196 20.6228 13.7071C20.4044 13.8946 20.1081 14 19.7993 14H1.16466C0.855775 14 0.559538 13.8946 0.341122 13.7071C0.122705 13.5196 0 13.2652 0 13V9C0 8.73478 0.122705 8.48043 0.341122 8.29289C0.559538 8.10536 0.855775 8 1.16466 8ZM1.16466 16H19.7993C20.1081 16 20.4044 16.1054 20.6228 16.2929C20.8412 16.4804 20.9639 16.7348 20.9639 17V21C20.9639 21.2652 20.8412 21.5196 20.6228 21.7071C20.4044 21.8946 20.1081 22 19.7993 22H1.16466C0.855775 22 0.559538 21.8946 0.341122 21.7071C0.122705 21.5196 0 21.2652 0 21V17C0 16.7348 0.122705 16.4804 0.341122 16.2929C0.559538 16.1054 0.855775 16 1.16466 16ZM6.98797 4H8.15263V2H6.98797V4ZM6.98797 12H8.15263V10H6.98797V12ZM6.98797 20H8.15263V18H6.98797V20ZM2.32932 2V4H4.65865V2H2.32932ZM2.32932 10V12H4.65865V10H2.32932ZM2.32932 18V20H4.65865V18H2.32932Z" fill="#060505"/>
</svg>
