<svg width="18" height="18" viewBox="0 0 18 18" fill="none" xmlns="http://www.w3.org/2000/svg">
<path d="M4.33502 15.525C4.01114 15.525 3.74332 15.4188 3.53155 15.2063C3.31978 14.9938 3.2139 14.725 3.2139 14.4V5.1C3.2139 4.775 3.31978 4.50625 3.53155 4.29375C3.74332 4.08125 4.01114 3.975 4.33502 3.975H5.82986V2.55C5.82986 2.4625 5.85789 2.39063 5.91395 2.33438C5.97 2.27813 6.04163 2.25 6.12883 2.25C6.21603 2.25 6.28765 2.27813 6.34371 2.33438C6.39977 2.39063 6.4278 2.4625 6.4278 2.55V3.975H11.585V2.5125C11.585 2.4375 11.6099 2.375 11.6597 2.325C11.7096 2.275 11.7718 2.25 11.8466 2.25C11.9213 2.25 11.9836 2.275 12.0334 2.325C12.0833 2.375 12.1082 2.4375 12.1082 2.5125V3.975H13.603C13.9269 3.975 14.1947 4.08125 14.4065 4.29375C14.6183 4.50625 14.7241 4.775 14.7241 5.1V14.4C14.7241 14.725 14.6183 14.9938 14.4065 15.2063C14.1947 15.4188 13.9269 15.525 13.603 15.525H4.33502ZM4.33502 15H13.603C13.7525 15 13.8895 14.9375 14.0141 14.8125C14.1387 14.6875 14.2009 14.55 14.2009 14.4V8.1H3.73709V14.4C3.73709 14.55 3.79938 14.6875 3.92394 14.8125C4.04851 14.9375 4.18554 15 4.33502 15Z" fill="black" fill-opacity="0.58"/>
</svg>
