<svg width="36" height="35" viewBox="0 0 36 35" fill="none" xmlns="http://www.w3.org/2000/svg">
<path d="M32.603 7.91593L24.9612 0.619117C24.5431 0.21988 23.99 0 23.4039 0H4.89453C3.66894 0 2.67188 0.969372 2.67188 2.16091V32.8391C2.67188 34.0306 3.66894 35 4.89453 35H31.0455C32.2712 35 33.3281 34.0306 33.3281 32.8391V9.45765C33.3281 8.88166 33.0258 8.31974 32.603 7.91593ZM30.6394 10.0387L23.2528 10.0387L23.2528 2.55578L30.6394 10.0387ZM5.30068 32.4442V2.55578H20.624V9.94577C20.624 11.4063 21.8461 12.5945 23.3484 12.5945H30.6394V32.4442H5.30068ZM14.6228 16.015L10.7427 21.1582L14.576 26.445L12.4274 27.9175L7.50493 21.1287L12.503 14.5035L14.6228 16.015ZM23.5957 14.4954L28.6868 21.1346L23.5925 27.9337L21.4677 26.4288L25.4213 21.1522L21.4882 16.023L23.5957 14.4954ZM18.1399 12.2735L20.7335 12.6905L17.7943 29.9701L15.2007 29.5532L18.1399 12.2735Z" fill="#7986CB"/>
</svg>
