<svg width="36" height="34" viewBox="0 0 36 34" fill="none" xmlns="http://www.w3.org/2000/svg">
<path d="M36 0V34H0V0H36Z" fill="white" fill-opacity="0.01"/>
<path d="M24 17.3541C24 17.9409 23.4963 18.4166 22.875 18.4166C22.2537 18.4166 21.75 17.9409 21.75 17.3541C21.75 16.7673 22.2537 16.2916 22.875 16.2916C23.4963 16.2916 24 16.7673 24 17.3541Z" fill="#10161F"/>
<path d="M14.25 17.3541C14.25 17.9409 13.7463 18.4166 13.125 18.4166C12.5037 18.4166 12 17.9409 12 17.3541C12 16.7673 12.5037 16.2916 13.125 16.2916C13.7463 16.2916 14.25 16.7673 14.25 17.3541Z" fill="#10161F"/>
<path d="M13.5 7.83331C13.9142 7.83331 14.25 7.49753 14.25 7.08331C14.25 6.6691 13.9142 6.33331 13.5 6.33331V7.08331V7.83331ZM12.393 7.27565L12.2152 6.54701V6.54701L12.393 7.27565ZM9.00001 8.49998L9.43351 9.11201V9.11201L9.00001 8.49998ZM4.49998 23.375L5.21785 23.1578L5.21785 23.1578L4.49998 23.375ZM10.1797 27.5948C10.5543 27.7717 11.0013 27.6115 11.1782 27.2369C11.3551 26.8624 11.1948 26.4153 10.8203 26.2385L10.5 26.9166L10.1797 27.5948ZM22.5048 6.33331C22.0906 6.33331 21.7548 6.6691 21.7548 7.08331C21.7548 7.49753 22.0906 7.83331 22.5048 7.83331V7.08331V6.33331ZM27.0048 8.49998L27.4383 7.88795V7.88795L27.0048 8.49998ZM31.5048 23.375L32.2227 23.5921V23.5921L31.5048 23.375ZM25.1845 26.2385C24.81 26.4153 24.6497 26.8624 24.8266 27.2369C25.0034 27.6115 25.4505 27.7717 25.825 27.5948L25.5048 26.9166L25.1845 26.2385ZM14.042 8.89433L13.8905 8.15978V8.15978L14.042 8.89433ZM21.958 8.89433L22.1095 8.15978V8.15978L21.958 8.89433ZM22.7869 8.56413L22.1542 8.1614L22.1542 8.1614L22.7869 8.56413ZM13.2131 8.56413L13.8458 8.1614V8.1614L13.2131 8.56413ZM11.4774 22.9457L11.7457 22.2453V22.2453L11.4774 22.9457ZM10.8212 21.8511C10.4467 21.6739 9.9996 21.8338 9.82243 22.2082C9.64527 22.5826 9.80517 23.0298 10.1796 23.2069L10.5004 22.529L10.8212 21.8511ZM25.8212 23.2069C26.1956 23.0298 26.3555 22.5826 26.1783 22.2082C26.0011 21.8338 25.554 21.6739 25.1796 21.8511L25.5004 22.529L25.8212 23.2069ZM8.9346 26.1459C8.7408 26.512 8.88045 26.9659 9.24653 27.1597C9.6126 27.3535 10.0665 27.2138 10.2603 26.8477L9.59744 26.4968L8.9346 26.1459ZM13.5 7.08331V6.33331C13.1805 6.33331 12.6923 6.43065 12.2152 6.54701L12.393 7.27565L12.5707 8.00429C13.063 7.88422 13.3854 7.83331 13.5 7.83331V7.08331ZM12.393 7.27565L12.2152 6.54701C11.5953 6.6982 10.8566 6.91701 10.201 7.14763C9.57677 7.36722 8.93026 7.63031 8.5665 7.88795L9.00001 8.49998L9.43351 9.11201C9.60276 8.99213 10.0574 8.78824 10.6988 8.56264C11.3087 8.34807 12 8.14348 12.5707 8.00429L12.393 7.27565ZM9.00001 8.49998L8.5665 7.88795C7.65352 8.53463 6.88258 9.72218 6.24898 11.0488C5.60262 12.4021 5.04928 14.0086 4.61936 15.6101C4.18905 17.2132 3.87664 18.8328 3.71958 20.2192C3.56706 21.5655 3.54567 22.8105 3.7821 23.5921L4.49998 23.375L5.21785 23.1578C5.07929 22.6998 5.05789 21.7311 5.21005 20.388C5.35767 19.0849 5.65463 17.5392 6.06807 15.999C6.48191 14.4574 7.0067 12.9428 7.60253 11.6952C8.21114 10.421 8.84646 9.52781 9.43351 9.11201L9.00001 8.49998ZM4.49998 23.375L3.7821 23.5921C3.87341 23.894 4.07649 24.1377 4.25177 24.3133C4.44052 24.5024 4.67327 24.6866 4.92178 24.8615C5.41995 25.212 6.05269 25.5746 6.70028 25.9163C7.99479 26.5992 9.45016 27.2503 10.1797 27.5948L10.5 26.9166L10.8203 26.2385C10.0498 25.8747 8.65555 25.2519 7.40021 24.5896C6.77288 24.2586 6.20566 23.9308 5.78502 23.6348C5.57411 23.4863 5.41775 23.3582 5.31343 23.2537C5.19564 23.1357 5.20171 23.1045 5.21785 23.1578L4.49998 23.375ZM22.5048 7.08331V7.83331C22.5975 7.83331 22.85 7.86904 23.2513 7.96101C23.6288 8.04754 24.0798 8.1698 24.5347 8.30942C24.9898 8.44912 25.4391 8.60322 25.8147 8.75187C26.2091 8.90802 26.4634 9.03561 26.5713 9.11201L27.0048 8.49998L27.4383 7.88795C27.1711 7.69874 26.7691 7.51644 26.3667 7.35716C25.9454 7.19039 25.4572 7.02352 24.9748 6.87545C24.4922 6.72731 24.0057 6.59501 23.5864 6.49892C23.1908 6.40827 22.787 6.33331 22.5048 6.33331V7.08331ZM27.0048 8.49998L26.5713 9.11201C27.1583 9.52781 27.7936 10.421 28.4022 11.6952C28.9981 12.9428 29.5229 14.4574 29.9367 15.999C30.3501 17.5392 30.6471 19.0849 30.7947 20.388C30.9469 21.7311 30.9255 22.6998 30.7869 23.1578L31.5048 23.375L32.2227 23.5921C32.4591 22.8105 32.4377 21.5655 32.2852 20.2192C32.1281 18.8328 31.8157 17.2132 31.3854 15.6101C30.9555 14.0086 30.4021 12.4021 29.7558 11.0488C29.1222 9.72218 28.3512 8.53463 27.4383 7.88795L27.0048 8.49998ZM31.5048 23.375L30.7869 23.1578C30.803 23.1045 30.8091 23.1357 30.6913 23.2537C30.587 23.3582 30.4307 23.4863 30.2197 23.6348C29.7991 23.9308 29.2319 24.2586 28.6045 24.5896C27.3492 25.2519 25.9549 25.8747 25.1845 26.2385L25.5048 26.9166L25.825 27.5948C26.5546 27.2503 28.01 26.5992 29.3045 25.9163C29.9521 25.5746 30.5848 25.212 31.083 24.8615C31.3315 24.6866 31.5642 24.5024 31.753 24.3133C31.9283 24.1377 32.1313 23.894 32.2227 23.5921L31.5048 23.375ZM14.042 8.89433L14.1934 9.62888C15.3817 9.38392 16.6628 9.24998 18 9.24998V8.49998V7.74998C16.5635 7.74998 15.1808 7.89379 13.8905 8.15978L14.042 8.89433ZM18 8.49998V9.24998C19.3372 9.24998 20.6183 9.38392 21.8066 9.62888L21.958 8.89433L22.1095 8.15978C20.8192 7.89379 19.4365 7.74998 18 7.74998V8.49998ZM21.958 8.89433L21.8066 9.62888C22.4048 9.75221 23.0663 9.52184 23.4196 8.96686L22.7869 8.56413L22.1542 8.1614C22.1605 8.15145 22.1644 8.153 22.1545 8.1569C22.144 8.16105 22.1276 8.16351 22.1095 8.15978L21.958 8.89433ZM14.042 8.89433L13.8905 8.15978C13.8724 8.16351 13.856 8.16105 13.8455 8.1569C13.8356 8.153 13.8395 8.15145 13.8458 8.1614L13.2131 8.56413L12.5804 8.96686C12.9337 9.52184 13.5952 9.75221 14.1934 9.62888L14.042 8.89433ZM13.2131 8.56413L13.8458 8.1614L13.0257 6.87292L12.393 7.27565L11.7602 7.67838L12.5804 8.96686L13.2131 8.56413ZM22.7869 8.56413L23.4196 8.96686L24.2404 7.67737L23.6077 7.27465L22.975 6.87192L22.1542 8.1614L22.7869 8.56413ZM18.0004 24.0826V23.3326C15.6793 23.3326 13.5311 22.9291 11.7457 22.2453L11.4774 22.9457L11.2092 23.6461C13.1795 24.4007 15.5111 24.8326 18.0004 24.8326V24.0826ZM11.4774 22.9457L11.7457 22.2453C11.425 22.1225 11.1165 21.9908 10.8212 21.8511L10.5004 22.529L10.1796 23.2069C10.5106 23.3636 10.8543 23.5102 11.2092 23.6461L11.4774 22.9457ZM25.5004 22.529L25.1796 21.8511C24.8841 21.9909 24.5754 22.1226 24.2546 22.2455L24.5228 22.9459L24.791 23.6463C25.1461 23.5103 25.4899 23.3637 25.8212 23.2069L25.5004 22.529ZM24.5228 22.9459L24.2546 22.2455C22.4693 22.9292 20.3212 23.3326 18.0004 23.3326V24.0826V24.8326C20.4895 24.8326 22.8209 24.4007 24.791 23.6463L24.5228 22.9459ZM9.59744 26.4968L10.2603 26.8477L12.1403 23.2966L11.4774 22.9457L10.8146 22.5948L8.9346 26.1459L9.59744 26.4968ZM26.4036 26.4985L27.0665 26.1476L25.1857 22.595L24.5228 22.9459L23.86 23.2968L25.7408 26.8494L26.4036 26.4985ZM24 17.3541H23.25C23.25 17.4869 23.1231 17.6666 22.875 17.6666V18.4166V19.1666C23.8696 19.1666 24.75 18.395 24.75 17.3541H24ZM22.875 18.4166V17.6666C22.6269 17.6666 22.5 17.4869 22.5 17.3541H21.75H21C21 18.395 21.8804 19.1666 22.875 19.1666V18.4166ZM21.75 17.3541H22.5C22.5 17.2214 22.6269 17.0416 22.875 17.0416V16.2916V15.5416C21.8804 15.5416 21 16.3133 21 17.3541H21.75ZM22.875 16.2916V17.0416C23.1231 17.0416 23.25 17.2214 23.25 17.3541H24H24.75C24.75 16.3133 23.8696 15.5416 22.875 15.5416V16.2916ZM14.25 17.3541H13.5C13.5 17.4869 13.3731 17.6666 13.125 17.6666V18.4166V19.1666C14.1196 19.1666 15 18.395 15 17.3541H14.25ZM13.125 18.4166V17.6666C12.8769 17.6666 12.75 17.4869 12.75 17.3541H12H11.25C11.25 18.395 12.1304 19.1666 13.125 19.1666V18.4166ZM12 17.3541H12.75C12.75 17.2214 12.8769 17.0416 13.125 17.0416V16.2916V15.5416C12.1304 15.5416 11.25 16.3133 11.25 17.3541H12ZM13.125 16.2916V17.0416C13.3731 17.0416 13.5 17.2214 13.5 17.3541H14.25H15C15 16.3133 14.1196 15.5416 13.125 15.5416V16.2916Z" fill="#10161F"/>
</svg>
