<svg width="52" height="45" viewBox="0 0 52 45" fill="none" xmlns="http://www.w3.org/2000/svg">
<path d="M17.199 34.4165V36.5259H16.0371C14.01 36.7045 11.9706 36.3098 10.2245 35.4009C9.22837 34.6978 8.7295 33.1509 8.7295 31.0514V27.5414C8.82338 26.9941 8.78321 26.4358 8.6116 25.9028C8.43999 25.3699 8.14077 24.8741 7.73337 24.4476C7.25283 24.1035 6.69408 23.8505 6.09334 23.7051C5.49259 23.5598 4.86326 23.5253 4.24612 23.6039H3.25V21.5156H4.41187C5.02883 21.5849 5.65559 21.5459 6.25474 21.4009C6.85389 21.2559 7.41314 21.008 7.89913 20.6719C8.57674 19.7483 8.92334 18.6718 8.89525 17.5781V14.0723C8.89525 11.8223 9.39412 10.4245 10.3903 9.7228C12.0584 8.77085 14.0448 8.32565 16.0371 8.45717H17.199V10.5665H16.0371C14.8682 10.4462 13.6884 10.6959 12.7156 11.2697C12.1129 12.1116 11.823 13.0932 11.8853 14.0822V17.7187C12.0295 18.892 11.7369 20.0745 11.05 21.0937C10.3814 21.8167 9.44141 22.3143 8.39313 22.5C9.5038 22.6475 10.5106 23.1491 11.2157 23.9062C11.8228 24.9479 12.1088 26.1075 12.0461 27.2728V30.9206C11.9022 31.9152 12.1989 32.9201 12.8765 33.7331C13.7959 34.2893 14.9168 34.539 16.0323 34.4362L17.199 34.4165Z" fill="#0EA568"/>
<path d="M34.6353 34.4995H35.7971C36.3507 34.5683 36.9146 34.5417 37.4563 34.421C37.9979 34.3003 38.5065 34.088 38.9529 33.7963C39.5824 32.9671 39.8203 31.9604 39.6175 30.9838V27.3445C39.4728 26.1739 39.7638 24.994 40.4479 23.9765C40.773 23.5795 41.1937 23.2482 41.681 23.0054C42.1682 22.7627 42.7105 22.6142 43.2705 22.5702C42.1598 22.4227 41.153 21.9211 40.4479 21.164C39.841 20.1223 39.555 18.9627 39.6175 17.7974V14.1552C39.737 13.1808 39.5048 12.1983 38.9529 11.3427C38.0016 10.8494 36.9055 10.6052 35.7971 10.6396H34.6353V8.53023H35.7971C37.8243 8.35164 39.8637 8.74636 41.6098 9.65523C42.6059 10.3584 43.1048 11.9052 43.1048 14.0048V17.512C43.0109 18.0592 43.051 18.6175 43.2227 19.1505C43.3943 19.6835 43.6935 20.1793 44.1009 20.6057C44.5815 20.9497 45.1403 21.2026 45.741 21.348C46.3417 21.4933 46.971 21.5279 47.5881 21.4495H48.75V23.5588H47.5881C46.9712 23.4896 46.3444 23.5286 45.7453 23.6735C45.1461 23.8185 44.5869 24.0665 44.1009 24.4026C43.6935 24.829 43.3943 25.3248 43.2227 25.8578C43.051 26.3908 43.0109 26.949 43.1048 27.4963V31.0035C43.1048 33.2535 42.6059 34.6513 41.6098 35.353C39.8545 36.242 37.8227 36.6352 35.7971 36.478H34.6353V34.4995Z" fill="#0EA568"/>
<path d="M20.0021 11.3794C17.5354 11.3794 16.0371 13.3481 16.0371 16.3013C16.0371 19.1939 17.2754 20.9335 19.7519 20.9335C22.1894 20.9335 23.7039 18.9647 23.7039 16.0045C23.7039 13.126 22.4705 11.3794 20.0021 11.3794ZM17.8344 16.0116C17.8344 13.9106 18.4957 12.7111 19.8705 12.7111C20.8715 12.7111 21.4809 13.4522 21.7539 14.6953L17.8539 16.456C17.8384 16.3082 17.8319 16.1599 17.8344 16.0116ZM21.905 16.3041C21.905 18.4135 21.255 19.6046 19.8867 19.6046C18.9036 19.6046 18.2764 18.8944 18.005 17.6808L21.905 15.9188V16.3041Z" fill="#0EA568"/>
<path d="M35.724 20.745L35.8784 19.3682H33.3336V11.2753L31.5185 11.4103V12.486L28.9071 12.7237L28.9413 13.9218L31.5185 13.8628V19.3696H28.6683V20.7492L35.724 20.745Z" fill="#0EA568"/>
<path d="M23.6194 33.5279L23.7738 32.1511H21.229V24.0596L19.4139 24.1932V25.2704L16.8009 25.5066L16.835 26.7061L19.4139 26.6471V32.1525H16.562V33.5321L23.6194 33.5279Z" fill="#0EA568"/>
<path d="M32.2627 24.158C29.7943 24.158 28.2928 26.1267 28.2928 29.0869C28.2928 31.9781 29.5343 33.7275 32.0108 33.7275C34.4483 33.7275 35.9628 31.7587 35.9628 28.8056C35.9628 25.9045 34.7295 24.158 32.2627 24.158ZM30.095 28.7986C30.095 26.6892 30.7563 25.4967 32.1295 25.4967C33.1305 25.4967 33.7415 26.2378 34.0128 27.4809L30.1128 29.2416C30.0978 29.0933 30.0919 28.9445 30.095 28.7958V28.7986ZM34.1575 29.0897C34.1575 31.1991 33.5075 32.3916 32.1392 32.3916C31.1545 32.3916 30.5272 31.68 30.2558 30.4664L34.1558 28.7058L34.1575 29.0897Z" fill="#0EA568"/>
</svg>
