<svg width="35" height="34" viewBox="0 0 35 34" fill="none" xmlns="http://www.w3.org/2000/svg">
<path d="M34.5768 25.4396C33.3321 25.7394 32.5623 25.4525 31.8717 24.4705C30.3213 22.2713 28.6097 20.1729 26.9583 18.0357C26.7454 17.7591 26.5243 17.4878 26.2486 17.1441C24.2941 19.6405 22.3424 22.018 20.5108 24.4912C19.8557 25.375 19.1678 25.7601 17.9449 25.4474L25.2932 16.1104L18.4526 7.67786C19.6291 7.46078 20.4426 7.5719 21.1632 8.56944C22.7546 10.7712 24.5098 12.8671 26.2595 15.0844C28.0201 12.8748 29.7535 10.7764 31.3913 8.59528C32.0491 7.71145 32.7561 7.3755 33.9381 7.70112C33.0427 8.82528 32.1665 9.93135 31.2848 11.0297C30.0947 12.5105 28.9264 14.0093 27.6926 15.4591C27.2531 15.976 27.3241 16.3119 27.7171 16.8004C29.9991 19.6405 32.2539 22.5091 34.5768 25.4396ZM0.363047 15.9553C0.559584 15.0224 0.690609 14.0714 0.963576 13.1565C2.60138 7.61842 9.31639 5.31583 13.9295 8.74775C16.6319 10.7609 17.3034 13.5984 17.1697 16.7978H1.93807C1.70878 22.5375 6.07353 26.003 11.6366 24.2353C13.5883 23.6151 14.7375 22.1679 15.3135 20.3589C15.6056 19.4518 16.0887 19.3097 16.9895 19.5681C16.5282 21.832 15.4827 23.7237 13.299 24.9073C10.0234 26.6801 5.34744 26.1064 2.888 23.6435C1.43581 22.1964 0.818904 20.3951 0.545936 18.4491C0.504991 18.139 0.420371 17.8341 0.354858 17.5266C0.360318 17.0028 0.363047 16.4791 0.363047 15.9553ZM1.96537 15.5703H15.7311C15.6411 11.4199 12.9114 8.47123 9.1799 8.44539C5.08539 8.41438 2.1428 11.2933 1.96537 15.5703Z" fill="black"/>
</svg>
