<svg width="55" height="55" viewBox="0 0 55 55" fill="none" xmlns="http://www.w3.org/2000/svg">
<rect width="54.9057" height="55" rx="27.4528" fill="black"/>
<path d="M14.6221 39.9049C14.6221 36.3969 17.4611 33.553 20.9631 33.553H27.3041V39.9049C27.3041 43.4129 24.4651 46.2568 20.9631 46.2568C17.4611 46.2568 14.6221 43.4129 14.6221 39.9049Z" fill="#24CB71"/>
<path d="M27.3041 8.14526V20.8491H33.6451C37.1471 20.8491 39.9861 18.0052 39.9861 14.4972C39.9861 10.9891 37.1471 8.14526 33.6451 8.14526H27.3041Z" fill="#FF7237"/>
<path d="M33.5926 33.5529C37.0946 33.5529 39.9336 30.7091 39.9336 27.201C39.9336 23.693 37.0946 20.8491 33.5926 20.8491C30.0906 20.8491 27.2516 23.693 27.2516 27.201C27.2516 30.7091 30.0906 33.5529 33.5926 33.5529Z" fill="#00B6FF"/>
<path d="M14.6221 14.4972C14.6221 18.0052 17.4611 20.8491 20.9631 20.8491H27.3041V8.14526H20.9631C17.4611 8.14526 14.6221 10.9891 14.6221 14.4972Z" fill="#FF3737"/>
<path d="M14.6221 27.201C14.6221 30.7091 17.4611 33.5529 20.9631 33.5529H27.3041V20.8491H20.9631C17.4611 20.8491 14.6221 23.693 14.6221 27.201Z" fill="#874FFF"/>
</svg>
