<svg width="55" height="55" viewBox="0 0 55 55" fill="none" xmlns="http://www.w3.org/2000/svg">
<g clip-path="url(#clip0_298_374)">
<path d="M36.1624 54.17C51.3338 49.0824 59.8494 31.1109 51.8294 15.5661C42.1799 -3.13717 15.7647 -4.35425 4.39621 13.3807C-5.569 28.9263 2.32865 49.069 18.8238 54.1676C20.1942 54.4196 20.695 53.5705 20.695 52.8462C20.695 52.1929 20.6705 50.0273 20.6559 47.737C13.0345 49.396 11.4248 44.4997 11.4248 44.4997C10.1765 41.3285 8.3811 40.4843 8.3811 40.4843C5.88951 38.7812 8.56919 38.8155 8.56919 38.8155C11.3197 39.0063 12.7707 41.6441 12.7707 41.6441C15.2159 45.8406 19.1878 44.6269 20.7463 43.9222C20.9954 42.1531 21.7038 40.9394 22.4855 40.2567C16.4031 39.5642 10.0031 37.2078 10.0031 26.6885C10.0031 23.6885 11.073 21.244 12.822 19.3207C12.5435 18.6233 11.5982 15.8314 13.0932 12.0533C13.0932 12.0533 15.3918 11.3168 20.629 14.8673C25.1041 13.6606 29.6735 13.6196 34.3474 14.8722C39.5749 11.3168 41.8784 12.0582 41.8784 12.0582C43.3758 15.8387 42.4329 18.6282 42.152 19.3232C43.9083 21.244 44.9685 23.6909 44.9685 26.6909C44.9685 37.2372 38.5587 39.5593 32.4543 40.2396C33.4412 41.0911 34.3132 42.7599 34.3132 45.3194C34.3132 48.9898 34.2766 51.9482 34.2766 52.8536C34.2766 53.5852 34.7749 54.4392 36.1624 54.17Z" fill="black"/>
</g>
<defs>
<clipPath id="clip0_298_374">
<rect width="54.9057" height="55" fill="white"/>
</clipPath>
</defs>
</svg>
