<svg width="36" height="34" viewBox="0 0 36 34" fill="none" xmlns="http://www.w3.org/2000/svg">
<path d="M36 0V34H0V0H36Z" fill="white" fill-opacity="0.01"/>
<path d="M4.5 22.6674C6.75 23.3757 6.75 27.6257 12 26.9174L13.5 26.634M22.5 29.7507V25.5007C22.5 24.2813 21.9562 23.1818 21.0852 22.4068C21.0763 22.3989 21.0807 22.3847 21.0927 22.3824C26.2213 21.4162 30 18.1044 30 14.1674C30 12.3801 29.2212 10.7217 27.8909 9.35303C27.887 9.34897 27.8859 9.34309 27.8881 9.338C28.8356 7.16156 27.9603 4.35269 27.7444 4.25073C27.5355 4.15207 24.8083 4.65924 22.5694 6.29901C22.5656 6.30184 22.5605 6.30274 22.5558 6.30138C21.151 5.89273 19.6127 5.6674 18 5.6674C16.3858 5.6674 14.846 5.89316 13.4402 6.30254C13.4356 6.3039 13.4304 6.303 13.4266 6.30017C11.1874 4.65948 8.45894 4.15204 8.25 4.25073C8.03402 4.35275 7.15772 7.16495 8.10804 9.34194C8.11027 9.34704 8.10916 9.35292 8.10521 9.35698C6.77727 10.7249 6 12.3818 6 14.1674C6 18.1044 9.7787 21.4162 14.9073 22.3824C14.9193 22.3847 14.9237 22.3989 14.9148 22.4068C14.0438 23.1818 13.5 24.2813 13.5 25.5007V29.7507" stroke="#10161F" stroke-width="2" stroke-linecap="round"/>
<path d="M4.5 22.6674C6.75 23.3757 6.75 27.6257 12 26.9174L13.5 26.634M22.5 29.7507V25.5007C22.5 24.2813 21.9562 23.1818 21.0852 22.4068C21.0763 22.3989 21.0807 22.3847 21.0927 22.3824C26.2213 21.4162 30 18.1044 30 14.1674C30 12.3801 29.2212 10.7217 27.8909 9.35303C27.887 9.34897 27.8859 9.34309 27.8881 9.338C28.8356 7.16156 27.9603 4.35269 27.7444 4.25073C27.5355 4.15207 24.8083 4.65924 22.5694 6.29901C22.5656 6.30184 22.5605 6.30274 22.5558 6.30138C21.151 5.89273 19.6127 5.6674 18 5.6674C16.3858 5.6674 14.846 5.89316 13.4402 6.30254C13.4356 6.3039 13.4304 6.303 13.4266 6.30017C11.1874 4.65948 8.45894 4.15204 8.25 4.25073C8.03402 4.35275 7.15772 7.16495 8.10804 9.34194C8.11027 9.34704 8.10916 9.35292 8.10521 9.35698C6.77727 10.7249 6 12.3818 6 14.1674C6 18.1044 9.7787 21.4162 14.9073 22.3824C14.9193 22.3847 14.9237 22.3989 14.9148 22.4068C14.0438 23.1818 13.5 24.2813 13.5 25.5007V29.7507" stroke="#10161F" stroke-width="2" stroke-linecap="round"/>
</svg>
