<svg width="55" height="55" viewBox="0 0 55 55" fill="none" xmlns="http://www.w3.org/2000/svg">
<path d="M53.8661 25.0518L29.885 1.04135C29.5572 0.711313 29.1675 0.449416 28.7384 0.270707C28.3092 0.0919976 27.849 0 27.3842 0C26.9195 0 26.4593 0.0919976 26.0301 0.270707C25.6009 0.449416 25.2112 0.711313 24.8834 1.04135L19.9053 6.02799L26.2318 12.3536C26.9762 12.0997 27.7767 12.0603 28.5423 12.2399C29.3079 12.4196 30.0078 12.811 30.5621 13.3696C31.1165 13.9282 31.5031 14.6315 31.6779 15.3995C31.8528 16.1674 31.8087 16.9691 31.5509 17.7132L37.6344 23.8111C38.5431 23.4987 39.5312 23.5077 40.4341 23.8366C41.337 24.1655 42.1001 24.7943 42.5963 25.6184C43.0925 26.4424 43.2918 27.412 43.161 28.3654C43.0303 29.3188 42.5773 30.1985 41.8776 30.858C41.1779 31.5174 40.2738 31.9168 39.3158 31.9896C38.3578 32.0623 37.4039 31.804 36.613 31.2578C35.822 30.7115 35.2419 29.9102 34.9691 28.9875C34.6963 28.0647 34.7475 27.0762 35.114 26.1866L29.4421 20.5128V35.4727C30.2983 35.9049 30.9811 36.6177 31.3768 37.4924C31.7726 38.3672 31.8574 39.3514 31.6174 40.2812C31.3773 41.211 30.8267 42.0305 30.0572 42.6034C29.2877 43.1763 28.3456 43.4681 27.3875 43.4302C26.4295 43.3923 25.5133 43.0271 24.7912 42.3953C24.0691 41.7634 23.5847 40.903 23.4185 39.9571C23.2524 39.0112 23.4144 38.0369 23.8777 37.196C24.341 36.3552 25.0777 35.6986 25.9653 35.3353V20.238C25.4521 20.0268 24.9857 19.716 24.5929 19.3237C24.2 18.9313 23.8884 18.465 23.6761 17.9516C23.4637 17.4382 23.3547 16.8878 23.3554 16.3321C23.3561 15.7764 23.4664 15.2263 23.6801 14.7134L17.4751 8.47812L1.03957 24.938C0.710093 25.2663 0.448645 25.6567 0.270242 26.0866C0.0918398 26.5165 0 26.9775 0 27.4431C0 27.9086 0.0918398 28.3696 0.270242 28.7995C0.448645 29.2294 0.710093 29.6198 1.03957 29.9482L25.0089 53.9587C25.3367 54.2887 25.7264 54.5506 26.1555 54.7293C26.5847 54.908 27.0449 55 27.5097 55C27.9744 55 28.4346 54.908 28.8638 54.7293C29.293 54.5506 29.6827 54.2887 30.0105 53.9587L53.8661 30.062C54.1956 29.7337 54.457 29.3433 54.6354 28.9134C54.8138 28.4835 54.9057 28.0225 54.9057 27.5569C54.9057 27.0914 54.8138 26.6304 54.6354 26.2005C54.457 25.7706 54.1956 25.3802 53.8661 25.0518Z" fill="#DF4C32"/>
</svg>
