<svg width="345" height="346" viewBox="0 0 345 346" fill="none" xmlns="http://www.w3.org/2000/svg">
<path d="M151.078 186.832L132.208 195.709C117.558 154.898 143.828 113.711 183.438 111.397V133.485C159.269 135.236 142.716 159.901 151.078 186.832ZM200.938 209.016L208.385 229.63C222.797 222.924 234.186 209.85 239.51 193.965H216.81C212.97 200.555 207.42 205.822 200.938 209.016ZM183.438 234.63V212.542C175.166 212.023 167.392 208.546 161.169 202.583L146.597 218.243C156.705 228.329 169.64 234.082 183.438 234.63ZM208.38 116.408L200.938 137.01C207.421 140.205 212.971 145.472 216.81 152.062H239.587C234.175 136.252 222.759 123.183 208.38 116.408ZM345 152.062C341.957 128.844 334.136 103.516 322.874 83.6759L302.959 96.9997C312.099 113.391 318.137 133.708 320.925 152.062H345ZM345 193.965H320.923C303.658 303.547 176.095 368.332 88.5922 280.231L72.0046 298.057C175.649 399.912 325.84 327.359 345 193.965ZM57.2834 231.245C50.508 213.933 46.8082 194.932 46.5261 176.001H23C23.2875 198.397 27.6978 220.916 35.8132 241.419L57.2834 231.245ZM182.763 62.3371V39.0142C132.415 41.1844 92.0194 70.2962 71.8611 120.591L92.0146 129.041C108.003 88.3316 141.906 64.0295 182.763 62.3371ZM283.813 152.062H305.856C298.638 108.031 269.924 66.0186 231.203 48.9162L223.341 70.5746C247.595 81.128 275.26 111.408 283.813 152.062ZM249.938 193.965C237.522 236.634 189.919 260.466 150.937 236.299C105.703 208.257 105.703 137.77 150.937 109.728C189.918 85.5612 237.522 109.393 249.938 152.062H270.858C257.879 92.5903 193.322 58.3968 140.822 90.9441C82.1632 127.31 82.1632 218.717 140.822 255.083C193.323 287.63 257.88 253.437 270.859 193.965H249.938ZM285.961 193.965C274.899 243.137 234.118 281.667 186.991 282.723V307.013C253.41 305.026 298.613 250.702 309.013 193.965H285.961ZM80.9193 176.001H58.25C59.0724 219.561 83.8092 272.438 135.785 296.299L144.162 273.844C106.058 256.16 82.5512 217.422 80.9193 176.001ZM36.0432 105.575L57.8498 114.717C92.5892 24.9751 197.241 0.181702 265.534 53.3355L279.582 33.1005C197.55 -31.2759 77.5639 1.08385 36.0432 105.575Z" fill="#EA7130" fill-opacity="0.13"/>
<path d="M304.953 67.383C304.953 63.8923 301.173 61.6988 298.166 63.4442C295.158 65.1895 295.158 69.5765 298.166 71.3219C301.173 73.0672 304.953 70.8737 304.953 67.383ZM315.313 58.9989C318.308 44.686 311.72 40.1945 300.521 50.5549C289.981 40.6736 282.475 43.7877 285.669 58.939C270.941 63.3791 271.917 71.7374 285.789 76.0067C282.615 89.9603 288.544 95.0506 300.521 84.5106C312.139 94.9309 318.305 90.0521 315.134 75.9468C330.265 70.8165 328.907 63.3906 315.313 58.9989ZM313.277 58.4599C310.903 57.9245 308.606 57.5347 306.27 57.3221C305.04 55.5224 303.606 53.7246 301.958 52.052C310.937 43.4398 316.229 46.1308 313.277 58.4599ZM290.101 70.1378C290.989 72.0342 292.157 73.7709 293.035 75.2282C291.605 75.0819 290.064 74.8597 288.424 74.5694C288.95 73.0983 289.509 71.6209 290.101 70.1378ZM289.981 64.9875C289.328 63.4191 288.732 61.9054 288.244 60.496C289.938 60.1451 291.597 59.8264 293.035 59.7175C291.965 61.3993 290.948 63.1577 289.981 64.9875ZM291.239 67.6226C292.703 64.6897 294.252 61.9058 295.97 59.4181C299.017 59.2428 302.032 59.2584 305.013 59.478C306.684 61.8071 308.244 64.5909 309.744 67.6226C308.622 69.9412 307.029 72.6133 305.192 75.4677C302.127 75.6999 298.983 75.6677 295.79 75.4677C294.172 72.9884 292.652 70.377 291.239 67.6226ZM310.882 70.1378C311.463 71.5489 312.001 72.9872 312.499 74.4496C310.961 74.7733 309.445 75.0091 307.947 75.1683C308.973 73.5795 309.945 71.8927 310.882 70.1378ZM307.947 59.7175C309.58 59.941 311.157 60.2202 312.678 60.5559C312.169 62.0678 311.591 63.5454 310.941 64.9875C310.015 63.1593 309.019 61.3997 307.947 59.7175ZM303.336 57.0825C301.471 57.0093 299.573 57.0117 297.647 57.0825C298.49 55.9732 299.43 54.8144 300.461 53.6091C301.466 54.6937 302.418 55.8612 303.336 57.0825ZM299.024 52.052C297.377 53.7246 295.943 55.4625 294.712 57.2622C292.376 57.4748 290.019 57.8646 287.646 58.4C284.831 45.8837 290.045 43.4398 299.024 52.052ZM286.328 74.0304C273.852 70.2775 274.451 64.4286 286.208 60.9751C286.928 63.1577 287.798 65.3742 288.783 67.5028C287.826 69.7041 286.979 71.965 286.328 74.0304ZM287.885 76.5457C290.001 77.0647 292.243 77.3138 294.592 77.5637C296.006 79.5583 297.469 81.4127 299.024 83.0134C289.881 91.7768 284.785 88.5929 287.885 76.5457ZM300.461 81.5163C299.378 80.3944 298.366 79.1231 297.407 77.7434C299.545 77.7884 301.611 77.7934 303.575 77.7434C302.624 79.0933 301.585 80.3497 300.461 81.5163ZM301.958 83.0134C303.627 81.201 305.097 79.3636 306.39 77.5038C308.597 77.3415 310.833 77.0024 313.097 76.4858C316.226 89.3088 310.545 91.2024 301.958 83.0134ZM314.595 73.9107C313.953 71.8452 313.143 69.7041 312.199 67.5028C313.17 65.3742 314.005 63.2176 314.714 61.035C326.193 64.5084 327.111 70.0579 314.595 73.9107Z" fill="#61DAFB"/>
<g clip-path="url(#clip0_236_637)">
<path d="M314.831 183.653C320.634 181.525 323.891 174.01 320.823 167.509C317.133 159.688 307.03 159.179 302.681 166.596C298.87 173.096 301.891 181.52 308.2 183.652C308.724 183.757 308.915 183.402 308.915 183.099C308.915 182.826 308.906 181.92 308.9 180.963C305.985 181.656 305.37 179.609 305.37 179.609C304.892 178.283 304.206 177.93 304.206 177.93C303.253 177.218 304.277 177.232 304.277 177.232C305.33 177.312 305.884 178.415 305.884 178.415C306.82 180.17 308.339 179.662 308.935 179.367C309.03 178.628 309.301 178.12 309.6 177.835C307.274 177.545 304.826 176.56 304.826 172.161C304.826 170.906 305.235 169.884 305.904 169.08C305.798 168.788 305.436 167.62 306.008 166.04C306.008 166.04 306.887 165.732 308.89 167.217C310.602 166.713 312.349 166.695 314.137 167.219C316.136 165.732 317.017 166.043 317.017 166.043C317.59 167.623 317.229 168.79 317.122 169.081C317.794 169.884 318.199 170.907 318.199 172.162C318.199 176.572 315.748 177.543 313.413 177.827C313.79 178.184 314.124 178.881 314.124 179.952C314.124 181.487 314.11 182.724 314.11 183.102C314.11 183.408 314.301 183.765 314.831 183.653Z" fill="black"/>
</g>
<g filter="url(#filter0_d_236_637)">
<g clip-path="url(#clip1_236_637)">
<g filter="url(#filter1_d_236_637)">
<path d="M70.414 133.427C58.8381 126.621 44.1288 134.934 44.0008 148.355C43.8834 160.672 56.1267 168.89 67.1883 165.046C68.3318 164.649 68.69 163.267 68.0095 162.266L60.3389 150.98C59.2317 149.351 56.6848 150.135 56.6848 152.104L56.6848 157.088C56.6848 158.361 54.2499 158.361 54.2499 157.088V141.693C54.2499 140.683 56.1262 140.6 56.6579 141.478L69.9408 161.522C70.5454 162.435 71.782 162.699 72.6306 162.008C81.7833 154.554 81.0955 139.708 70.414 133.427ZM68.79 151.066C68.79 152.28 67.2117 152.751 66.547 151.735C66.4168 151.536 66.3475 151.304 66.3475 151.066V141.217C66.3475 140.264 68.79 140.264 68.79 141.217V151.066Z" fill="#060606"/>
</g>
</g>
<rect x="44.5" y="131.5" width="34" height="34" rx="17" stroke="black" shape-rendering="crispEdges"/>
</g>
<path d="M8.30673 141.825C9.41429 137.275 12.1832 135 16.6135 135C23.2588 135 24.0895 140.119 27.4122 140.972C29.6273 141.541 31.5656 140.687 33.2269 138.412C32.1193 142.962 29.3504 145.237 24.9202 145.237C18.2748 145.237 17.4441 140.119 14.1214 139.266C11.9063 138.697 9.96807 139.55 8.30673 141.825ZM0 152.062C1.10756 147.512 3.87647 145.237 8.30673 145.237C14.9521 145.237 15.7828 150.356 19.1055 151.209C21.3206 151.778 23.2588 150.925 24.9202 148.65C23.8126 153.2 21.0437 155.475 16.6135 155.475C9.96807 155.475 9.1374 150.356 5.81471 149.503C3.59958 148.934 1.66135 149.787 0 152.062Z" fill="white"/>
<defs>
<filter id="filter0_d_236_637" x="40" y="131" width="43" height="43" filterUnits="userSpaceOnUse" color-interpolation-filters="sRGB">
<feFlood flood-opacity="0" result="BackgroundImageFix"/>
<feColorMatrix in="SourceAlpha" type="matrix" values="0 0 0 0 0 0 0 0 0 0 0 0 0 0 0 0 0 0 127 0" result="hardAlpha"/>
<feOffset dy="4"/>
<feGaussianBlur stdDeviation="2"/>
<feComposite in2="hardAlpha" operator="out"/>
<feColorMatrix type="matrix" values="0 0 0 0 0 0 0 0 0 0 0 0 0 0 0 0 0 0 0.25 0"/>
<feBlend mode="normal" in2="BackgroundImageFix" result="effect1_dropShadow_236_637"/>
<feBlend mode="normal" in="SourceGraphic" in2="effect1_dropShadow_236_637" result="shape"/>
</filter>
<filter id="filter1_d_236_637" x="40" y="131" width="43" height="43" filterUnits="userSpaceOnUse" color-interpolation-filters="sRGB">
<feFlood flood-opacity="0" result="BackgroundImageFix"/>
<feColorMatrix in="SourceAlpha" type="matrix" values="0 0 0 0 0 0 0 0 0 0 0 0 0 0 0 0 0 0 127 0" result="hardAlpha"/>
<feOffset dy="4"/>
<feGaussianBlur stdDeviation="2"/>
<feComposite in2="hardAlpha" operator="out"/>
<feColorMatrix type="matrix" values="0 0 0 0 0 0 0 0 0 0 0 0 0 0 0 0 0 0 0.25 0"/>
<feBlend mode="normal" in2="BackgroundImageFix" result="effect1_dropShadow_236_637"/>
<feBlend mode="normal" in="SourceGraphic" in2="effect1_dropShadow_236_637" result="shape"/>
</filter>
<clipPath id="clip0_236_637">
<rect width="21" height="23" fill="white" transform="translate(301 161)"/>
</clipPath>
<clipPath id="clip1_236_637">
<rect x="44" y="131" width="35" height="35" rx="17.5" fill="white"/>
</clipPath>
</defs>
</svg>
