<svg width="28" height="27" viewBox="0 0 28 27" fill="none" xmlns="http://www.w3.org/2000/svg">
<path d="M20.5 6.66667H20.5029M18.25 13.0417C18.25 15.3889 16.2353 17.2917 13.75 17.2917C11.2647 17.2917 9.25 15.3889 9.25 13.0417C9.25 10.6945 11.2647 8.79167 13.75 8.79167C16.2353 8.79167 18.25 10.6945 18.25 13.0417ZM13 25.0833H14.5C20.1569 25.0833 22.9853 25.0833 24.7426 23.326C26.5 21.5686 26.5 18.7263 26.5 13.0417C26.5 7.35703 26.5 4.51472 24.7426 2.75736C22.9853 1 20.1569 1 14.5 1H13C7.34315 1 4.51472 1 2.75736 2.75736C1 4.51472 1 7.35703 1 13.0417C1 18.7263 1 21.5686 2.75736 23.326C4.51472 25.0833 7.34315 25.0833 13 25.0833Z" stroke="#10161F" stroke-width="2" stroke-linecap="round" stroke-linejoin="round"/>
</svg>
