<svg width="42" height="38" viewBox="0 0 42 38" fill="none" xmlns="http://www.w3.org/2000/svg">
<path d="M7 0C3.13401 0 0 3.13401 0 7V31C0 34.866 3.13401 38 7 38H35C38.866 38 42 34.866 42 31V7C42 3.13401 38.866 0 35 0H7ZM22.216 32.38C21.5961 33.5196 20.4127 34.2684 19.0415 34.6299C16.9344 35.0676 14.9191 34.818 13.4198 34.0039C13.1561 33.8575 12.9075 33.6904 12.6748 33.5055C11.5954 32.6486 12.0708 31.0648 13.2763 30.3968L13.9529 30.0219C14.1729 29.9 14.3896 29.9427 14.5239 30.1553C14.9318 30.7736 15.2836 31.2114 15.9751 31.5187C16.6545 31.7285 18.146 31.8625 18.7219 30.7809C19.0737 30.2307 18.9618 28.462 18.9618 26.5052C18.9616 24.0924 18.9712 21.6876 18.9754 19.2951C18.9773 18.2087 19.858 17.328 20.9444 17.328C22.0308 17.328 22.9115 18.2088 22.9134 19.2952C22.9179 21.9296 22.9277 24.485 22.9115 27.1022C22.9199 29.1025 23.1118 30.8858 22.216 32.38ZM38.5368 31.3743C37.1693 35.6066 29.5448 35.744 26.498 32.9478C26.4084 32.8562 26.3234 32.7707 26.2425 32.6893C25.493 31.9351 25.8155 30.7973 26.758 30.3051C27.6149 29.8577 28.6351 30.1577 29.3845 30.7684C29.9142 31.2001 30.5203 31.4785 31.332 31.6312C33.2633 31.8446 35.2064 31.2442 34.7706 29.3883C34.3227 27.8725 30.8159 27.5038 28.4293 25.8829C26.0064 24.4106 25.4386 20.8331 27.4297 18.789C28.0933 18.033 29.2249 17.4688 30.4124 17.1976L31.6515 17.0526C34.0307 17.0091 35.5179 17.5776 36.6096 18.6805C37.2409 19.2593 36.982 20.2787 36.2409 20.7081C36.1806 20.7431 36.1182 20.7792 36.0524 20.8175C35.2335 21.2933 34.1805 20.9154 33.344 20.4713C33.1791 20.3837 33.0082 20.3138 32.8349 20.2613C31.7792 19.9719 30.448 20.2865 30.1718 21.2958C30.1173 21.4729 30.1002 21.643 30.1237 21.8515C30.1665 22.2303 30.314 22.6033 30.5929 22.8632C31.2156 23.4437 32.3557 23.7778 33.3987 24.2115C37.1052 25.5716 38.3568 27.0299 38.6645 28.7657C38.9609 30.2602 38.593 31.2296 38.5368 31.3743Z" fill="#F0DB4F"/>
</svg>
