<svg width="40" height="35" viewBox="0 0 40 35" fill="none" xmlns="http://www.w3.org/2000/svg">
<g clip-path="url(#clip0_164_201)">
<path fill-rule="evenodd" clip-rule="evenodd" d="M20.274 8.99963L20.2389 0.10144H14.9822L15.0172 8.99963L17.6456 12.4067L20.274 8.99963Z" fill="#D63AFF"/>
<path fill-rule="evenodd" clip-rule="evenodd" d="M15.0172 24.2488V33.1801H20.274V24.2488L17.6456 20.8417L15.0172 24.2488Z" fill="#D63AFF"/>
<path fill-rule="evenodd" clip-rule="evenodd" d="M20.274 24.2486L25.8111 31.4598L30.0515 28.5489L24.5144 21.3377L20.274 20.0476V24.2486Z" fill="#D63AFF"/>
<path fill-rule="evenodd" clip-rule="evenodd" d="M15.0172 8.99939L9.44509 1.78821L5.20465 4.69914L10.7418 11.9103L15.0172 13.2004V8.99939Z" fill="#D63AFF"/>
<path fill-rule="evenodd" clip-rule="evenodd" d="M10.7417 11.9102L1.77021 9.16467L0.158142 13.8619L9.12966 16.6405L13.3701 15.3173L10.7417 11.9102Z" fill="#D63AFF"/>
<path fill-rule="evenodd" clip-rule="evenodd" d="M21.886 17.9307L24.5144 21.3378L33.4859 24.0834L35.098 19.3862L26.1265 16.6406L21.886 17.9307Z" fill="#D63AFF"/>
<path fill-rule="evenodd" clip-rule="evenodd" d="M26.1265 16.6405L35.098 13.8619L33.4859 9.16467L24.5144 11.9102L21.886 15.3173L26.1265 16.6405Z" fill="#D63AFF"/>
<path fill-rule="evenodd" clip-rule="evenodd" d="M9.12966 16.6406L0.158142 19.3862L1.77021 24.0834L10.7417 21.3378L13.3701 17.9307L9.12966 16.6406Z" fill="#D63AFF"/>
<path fill-rule="evenodd" clip-rule="evenodd" d="M10.7418 21.3377L5.20465 28.5489L9.44509 31.4598L15.0172 24.2486V20.0476L10.7418 21.3377Z" fill="#D63AFF"/>
<path fill-rule="evenodd" clip-rule="evenodd" d="M24.5144 11.9103L30.0515 4.69914L25.8111 1.78821L20.274 8.99939V13.2004L24.5144 11.9103Z" fill="#D63AFF"/>
</g>
<defs>
<clipPath id="clip0_164_201">
<rect width="39.9313" height="34.0812" fill="white"/>
</clipPath>
</defs>
</svg>
