<svg width="72" height="61" viewBox="0 0 72 61" fill="none" xmlns="http://www.w3.org/2000/svg">
<path fill-rule="evenodd" clip-rule="evenodd" d="M29.7314 6.73017L16.2006 0.127892C15.8523 -0.0426305 15.4241 -0.0426305 15.0758 0.127892L1.54505 6.73017C1.16706 6.90766 0.987624 7.188 0.982666 7.55873V46.8357C0.982666 47.1768 1.19936 47.4938 1.54763 47.6643L28.6118 60.8689C29.0029 61.0452 29.3316 61.0416 29.7339 60.871L56.7981 47.6665C57.1489 47.496 57.363 47.1812 57.363 46.8379V34.298L70.3288 27.9711C70.6797 27.8006 70.8938 27.4858 70.8938 27.1426V14.0495C70.8938 13.8131 70.7263 13.4164 70.3185 13.221L56.7877 6.61868C56.4395 6.44816 56.0112 6.44816 55.663 6.61868L42.1322 13.221C41.7632 13.3993 41.5698 13.6903 41.5698 14.0495V26.5895L30.2937 32.0921V7.55873C30.2937 7.2704 30.0943 6.89519 29.7314 6.73017ZM29.1535 45.7361L17.898 40.3384L42.6868 28.2444L53.9526 33.7405L29.1535 45.7361ZM55.0928 21.2049V32.0921L43.8142 26.5895V15.7023L55.0928 21.2049ZM56.2202 8.54908L67.4911 14.0495L56.2202 19.55L44.9493 14.0495L56.2202 8.54908ZM16.7526 38.6944V14.7141L28.0313 9.21149V33.1896L16.7526 38.6944ZM15.6253 2.06048L26.8962 7.56092L15.6253 13.0614L4.35438 7.56092L15.6253 2.06048ZM30.2834 58.3875V47.391L55.0928 35.3889V46.2826L30.2834 58.3875ZM57.3475 32.0921V21.2049L68.6262 15.7023V26.5895L57.3475 32.0921ZM28.0365 47.391L28.0365 58.3854L3.21929 46.2826V9.21149L14.4979 14.7141L14.4979 40.8986L28.0365 47.391Z" fill="#F52D21"/>
</svg>
