<svg width="36" height="34" viewBox="0 0 36 34" fill="none" xmlns="http://www.w3.org/2000/svg">
<path d="M36 0V34H0V0H36Z" fill="white" fill-opacity="0.01"/>
<path d="M12 11.3333H12.0029M12 15.5833V22.6666M16.5 14.1666V17.0004M16.5 17.0004V22.6666M16.5 17.0004C16.5 16.2921 17.8754 14.4741 19.5 14.1673C21.571 13.7761 24 14.8755 24 17.0004V22.6671M13.25 29.0416H22.75C26.5212 29.0416 28.4069 29.0416 29.5784 27.8701C30.75 26.6985 30.75 24.8129 30.75 21.0416V12.9583C30.75 9.18708 30.75 7.30146 29.5784 6.12989C28.4069 4.95831 26.5212 4.95831 22.75 4.95831H13.25C9.47876 4.95831 7.59315 4.95831 6.42157 6.12989C5.25 7.30146 5.25 9.18708 5.25 12.9583V21.0416C5.25 24.8129 5.25 26.6985 6.42157 27.8701C7.59315 29.0416 9.47876 29.0416 13.25 29.0416Z" stroke="#10161F" stroke-width="2" stroke-linecap="round"/>
</svg>
