<svg width="20" height="21" viewBox="0 0 20 21" fill="none" xmlns="http://www.w3.org/2000/svg">
<path d="M9.96559 17.7843C9.85486 17.7843 9.74413 17.7661 9.6334 17.7296C9.52267 17.6932 9.41887 17.6312 9.32198 17.5437C8.8237 17.0625 8.2839 16.4901 7.70257 15.8265C7.12125 15.163 6.57799 14.4593 6.07279 13.7156C5.56759 12.9718 5.14543 12.1989 4.80633 11.3968C4.46722 10.5947 4.29767 9.80724 4.29767 9.03433C4.29767 7.28433 4.84093 5.82235 5.92746 4.64839C7.01398 3.47443 8.36002 2.88745 9.96559 2.88745C11.5712 2.88745 12.9172 3.47443 14.0037 4.64839C15.0902 5.82235 15.6335 7.28433 15.6335 9.03433C15.6335 9.80724 15.464 10.5911 15.1249 11.3859C14.7857 12.1807 14.3671 12.9536 13.8688 13.7046C13.3705 14.4557 12.8307 15.1593 12.2494 15.8156C11.668 16.4718 11.1282 17.0406 10.63 17.5218C10.5381 17.6093 10.4336 17.675 10.3167 17.7187C10.1996 17.7625 10.0825 17.7843 9.96559 17.7843ZM9.96933 10.1937C10.3129 10.1937 10.6057 10.0648 10.848 9.80695C11.0902 9.54926 11.2113 9.23937 11.2113 8.87726C11.2113 8.51531 11.0889 8.20672 10.8442 7.95151C10.5996 7.69631 10.3055 7.5687 9.96185 7.5687C9.61832 7.5687 9.32544 7.69762 9.08322 7.95545C8.841 8.21314 8.71989 8.52303 8.71989 8.88514C8.71989 9.2471 8.84225 9.55568 9.08696 9.81089C9.33153 10.0661 9.62565 10.1937 9.96933 10.1937Z" fill="black" fill-opacity="0.44"/>
</svg>
