<svg width="35" height="33" viewBox="0 0 35 33" fill="none" xmlns="http://www.w3.org/2000/svg">
<path fill-rule="evenodd" clip-rule="evenodd" d="M24.0315 11.0375C24.4697 12.2345 24.7852 13.4565 24.8889 14.7232C25.0178 16.2945 24.9588 17.8548 24.6081 19.4004C24.5985 19.4429 24.5783 19.4829 24.5633 19.5241C24.4533 19.5244 24.3411 19.5115 24.2335 19.5272C23.3248 19.6621 22.4169 19.8018 21.5091 19.9408C20.5706 20.0844 19.6308 20.2223 18.6939 20.3757C18.362 20.4298 17.9512 20.3651 17.8172 20.7988C17.8133 20.8106 17.7751 20.8127 17.753 20.8194L17.7983 18.2281L17.7522 11.9757L18.1895 11.9048C18.9047 11.7942 19.6198 11.682 20.3356 11.5745C21.1897 11.4464 22.0446 11.3218 22.8993 11.1968C23.2762 11.1414 23.6538 11.0906 24.0315 11.0375Z" fill="#439934"/>
<path fill-rule="evenodd" clip-rule="evenodd" d="M16.85 28.3732C16.3887 27.9986 15.9112 27.6405 15.469 27.2466C13.0896 25.1269 11.3491 22.632 10.492 19.6241C10.2559 18.7963 10.0984 17.955 10.0479 17.0996C10.0124 16.501 9.9611 15.8969 10.0059 15.3014C10.1252 13.7174 10.3675 12.1486 10.8594 10.6229L10.8865 10.5873C10.9342 10.6474 11.003 10.7005 11.0273 10.7683C11.5075 12.1037 11.9841 13.4402 12.4582 14.7775C13.9481 18.9798 15.436 23.1832 16.9283 27.3845C16.9575 27.4665 17.0331 27.5338 17.0875 27.6078L16.85 28.3732Z" fill="#45A538"/>
<path fill-rule="evenodd" clip-rule="evenodd" d="M24.0315 11.0375C23.6538 11.0906 23.276 11.1414 22.899 11.1963C22.0443 11.3214 21.1894 11.4459 20.3353 11.574C19.6196 11.6815 18.9044 11.7937 18.1892 11.9043L17.7519 11.9752L17.7487 11.7058C17.7342 11.4843 17.7093 11.2631 17.7066 11.0416C17.6878 9.62933 17.676 8.21703 17.6575 6.80474C17.646 5.9207 17.6288 5.03692 17.6097 4.15313C17.598 3.60399 17.5854 3.0546 17.5592 2.50623C17.545 2.21155 17.4948 1.91842 17.4743 1.62374C17.4629 1.45435 17.4787 1.28368 17.4822 1.11353C17.7052 1.52164 17.9233 1.93285 18.1526 2.33788C18.5149 2.97828 19.0919 3.45008 19.6114 3.96493C21.6649 5.99959 23.1228 8.36528 24.0315 11.0375Z" fill="#46A037"/>
<path fill-rule="evenodd" clip-rule="evenodd" d="M17.7527 20.8191C17.7748 20.8124 17.8133 20.8104 17.8169 20.7985C17.9509 20.3649 18.3617 20.4296 18.6936 20.3754C19.6305 20.2223 20.5703 20.0841 21.5088 19.9405C22.4166 19.8016 23.3245 19.6618 24.2332 19.527C24.3408 19.511 24.453 19.5241 24.563 19.5239C24.3932 20.0962 24.2594 20.6809 24.0441 21.2376C23.7995 21.8689 23.5036 22.4851 23.1894 23.0892C22.7191 23.9901 22.1369 24.8351 21.4553 25.6062C20.9314 26.2012 20.3475 26.7511 19.7623 27.2944C19.4388 27.5947 19.0575 27.8394 18.7026 28.1093L18.6107 28.05L18.2793 27.7824L17.9364 27.0726C17.7022 26.2447 17.5745 25.3931 17.5559 24.5363L17.5622 24.3916L17.6089 23.7662C17.6244 23.5527 17.6452 23.3395 17.6547 23.1255C17.6899 22.3567 17.7205 21.5879 17.7527 20.8191Z" fill="#409433"/>
<path fill-rule="evenodd" clip-rule="evenodd" d="M17.7527 20.8191C17.7205 21.5879 17.69 22.3567 17.6553 23.1258C17.6457 23.3398 17.625 23.553 17.6094 23.7664L17.4006 23.8409C16.9368 22.5514 16.4728 21.2754 16.0189 19.9962C15.2682 17.8798 14.5265 15.7601 13.777 13.6432C13.1716 11.9345 12.5619 10.2272 11.9481 8.52121C11.9194 8.44129 11.837 8.3789 11.7797 8.30826L13.1161 5.98743C13.162 6.06271 13.2226 6.13309 13.2515 6.21404C13.8705 7.94193 14.4863 9.67083 15.099 11.4007C15.8949 13.6514 16.686 15.9039 17.4814 18.1549C17.5131 18.2449 17.5655 18.3279 17.6154 18.4287L17.7983 18.2276L17.7527 20.8191Z" fill="#4FAA41"/>
<path fill-rule="evenodd" clip-rule="evenodd" d="M11.7799 8.30847C11.8372 8.37911 11.9194 8.4415 11.9483 8.52142C12.5621 10.2274 13.1718 11.9347 13.7772 13.6434C14.5267 15.7603 15.2684 17.88 16.0191 19.9964C16.4727 21.2754 16.9368 22.5516 17.4008 23.8412L17.6096 23.7667L17.563 24.3921L17.5207 24.5362C17.448 25.221 17.3869 25.9073 17.2985 26.5905C17.254 26.9328 17.1595 27.269 17.0877 27.6081C17.0337 27.5341 16.9578 27.4668 16.9286 27.3848C15.4363 23.1832 13.9483 18.9801 12.4585 14.7778C11.9845 13.4404 11.5075 12.104 11.0276 10.7685C11.0033 10.7007 10.9348 10.6476 10.8867 10.5875L11.7799 8.30847Z" fill="#4AA73C"/>
<path fill-rule="evenodd" clip-rule="evenodd" d="M17.7981 18.2278L17.6152 18.4289C17.5652 18.3281 17.5128 18.2449 17.4811 18.1551C16.686 15.9042 15.8947 13.6517 15.0987 11.401C14.486 9.67108 13.8702 7.94219 13.2512 6.2143C13.2226 6.13334 13.162 6.0627 13.1158 5.98768L14.7687 3.9342C14.8208 3.99995 14.895 4.05847 14.9221 4.13246C15.3809 5.40116 15.8357 6.6714 16.2877 7.94241C16.71 9.12938 17.126 10.3182 17.5532 11.5036C17.5819 11.583 17.6815 11.6392 17.7481 11.7062L17.7514 11.9756C17.7672 14.0593 17.7828 16.1437 17.7981 18.2278Z" fill="#57AE47"/>
<path fill-rule="evenodd" clip-rule="evenodd" d="M17.7486 11.7057C17.682 11.6386 17.5824 11.5824 17.5537 11.503C17.1265 10.3176 16.7105 9.12884 16.2882 7.94187C15.8362 6.67086 15.3814 5.40087 14.9226 4.13192C14.8955 4.05793 14.8213 3.9994 14.7692 3.93366C15.3066 3.4366 15.8275 2.92175 16.3865 2.44763C16.8836 2.02636 17.2832 1.57468 17.3015 0.909005C17.3023 0.881419 17.3176 0.853833 17.3411 0.776489L17.4827 1.11319C17.4792 1.28361 17.4631 1.45402 17.4748 1.6234C17.4953 1.91808 17.5455 2.21122 17.5597 2.5059C17.5859 3.05426 17.5985 3.60366 17.6102 4.1528C17.629 5.03658 17.6462 5.92036 17.658 6.8044C17.6763 8.2167 17.6883 9.629 17.7071 11.0413C17.7093 11.2633 17.7339 11.4842 17.7486 11.7057Z" fill="#60B24F"/>
<path fill-rule="evenodd" clip-rule="evenodd" d="M17.0872 27.6079C17.159 27.2688 17.2535 26.9324 17.2979 26.5903C17.3867 25.9073 17.4475 25.2208 17.5201 24.536L17.5382 24.5334L17.5562 24.5363C17.5747 25.3931 17.7025 26.2447 17.9367 27.0726C17.8886 27.1325 17.8207 27.1858 17.7953 27.2534C17.5968 27.7819 17.4099 28.3145 17.2103 28.843C17.183 28.9152 17.1071 28.9714 17.0536 29.0349L16.8497 28.3733L17.0872 27.6079Z" fill="#A9AA88"/>
<path fill-rule="evenodd" clip-rule="evenodd" d="M17.054 29.0351C17.1075 28.9717 17.1836 28.9155 17.2106 28.8433C17.4102 28.3148 17.5974 27.7824 17.7956 27.2536C17.821 27.1861 17.8887 27.1327 17.937 27.0729L18.2796 27.7829C18.2119 27.8736 18.1185 27.9554 18.0809 28.0564L17.4246 29.8763C17.3976 29.9493 17.3054 30.0009 17.2437 30.0625L17.054 29.0351Z" fill="#B6B598"/>
<path fill-rule="evenodd" clip-rule="evenodd" d="M17.2437 30.0622C17.3056 30.0008 17.3976 29.949 17.4246 29.876L18.0808 28.0561C18.1182 27.9553 18.2119 27.8733 18.2796 27.7826L18.6112 28.0499C18.451 28.1995 18.362 28.3722 18.4155 28.5906L18.3148 28.902C18.2689 28.9554 18.2026 29.0018 18.1799 29.0629C17.9509 29.6824 17.7323 30.3053 17.5016 30.9248C17.4724 31.0034 17.3913 31.0651 17.334 31.1342C17.3043 30.7766 17.274 30.4198 17.2437 30.0622Z" fill="#C2C1A7"/>
<path fill-rule="evenodd" clip-rule="evenodd" d="M17.3343 31.1342C17.3913 31.0649 17.4724 31.0033 17.5019 30.9249C17.7325 30.3056 17.9512 29.6828 18.1802 29.063C18.2029 29.0021 18.2689 28.9555 18.3151 28.9021L18.1761 30.3317C18.139 30.3721 18.0852 30.4075 18.0675 30.4546C17.9105 30.8708 17.7626 31.29 17.6051 31.7061C17.5726 31.7919 17.5103 31.8677 17.4618 31.9479C17.4186 31.8945 17.3414 31.843 17.3378 31.7873C17.3239 31.5705 17.3335 31.3521 17.3343 31.1342Z" fill="#CECDB7"/>
<path fill-rule="evenodd" clip-rule="evenodd" d="M17.4614 31.9479C17.51 31.8675 17.5723 31.7917 17.6047 31.7061C17.7625 31.2902 17.9102 30.871 18.0671 30.4546C18.0849 30.4075 18.1389 30.3724 18.1758 30.3317L18.1791 31.2701L17.8466 32.0755L17.4614 31.9479Z" fill="#DBDAC7"/>
<path fill-rule="evenodd" clip-rule="evenodd" d="M17.8467 32.0758L18.1792 31.2704L18.2477 32.2233L17.8467 32.0758Z" fill="#EBE9DC"/>
<path fill-rule="evenodd" clip-rule="evenodd" d="M18.4155 28.5909C18.362 28.3726 18.4507 28.1996 18.6112 28.0503L18.7032 28.1096L18.4155 28.5909Z" fill="#CECDB7"/>
<path fill-rule="evenodd" clip-rule="evenodd" d="M17.5562 24.5366L17.5382 24.5338L17.5201 24.5363L17.5625 24.3922L17.5562 24.5366Z" fill="#4FAA41"/>
</svg>
