<svg width="103" height="71" viewBox="0 0 103 71" fill="none" xmlns="http://www.w3.org/2000/svg">
<path d="M93.9452 54.2522C88.4321 54.1485 84.2219 54.503 80.6223 55.5508C79.5997 55.8486 77.9674 55.857 77.8003 56.7417C78.3626 57.1483 78.4502 57.7562 78.8968 58.2565C79.7564 59.2161 81.2071 60.5041 82.5021 61.1786C83.9175 61.9164 85.3755 62.7046 86.8921 63.343C89.5896 64.4785 92.6012 65.1274 95.1983 66.2651C96.7294 66.9363 98.2501 67.7811 99.7434 68.5377C100.482 68.9121 100.978 69.4939 101.938 69.7286V69.621C101.434 69.1772 101.303 68.5682 100.841 68.105L98.8028 66.6978C96.8106 64.8717 94.281 63.2676 91.5923 61.9358C89.4483 60.873 84.6501 59.4375 83.756 57.7152L83.5994 57.607C85.1192 57.4883 86.8986 57.1089 88.3019 56.8487C90.6588 56.4127 92.7651 56.5254 95.1983 56.0916L98.4895 55.442V55.0094C97.2596 54.138 96.3824 52.9842 95.0417 52.1955C91.5312 50.132 87.7011 48.0702 83.7568 46.3507C81.5686 45.3978 78.8655 44.7782 76.5463 43.97C75.7663 43.6976 74.3959 43.5562 73.881 43.1036C72.6624 42.0319 71.9996 40.6729 71.0606 39.4243C69.0933 36.8079 67.1613 33.9507 65.4181 31.1978C64.2292 29.3207 63.4524 27.4703 61.9695 25.7862C54.8522 17.7061 47.1919 12.8298 35.3246 8.03623C32.799 7.01672 29.7585 6.61457 26.5453 6.08762C24.8222 6.01606 23.0975 5.9434 21.3736 5.87073C20.3205 5.56787 19.2264 4.67871 18.2391 4.24716C14.3077 2.53207 4.22299 -1.1982 1.3118 3.70634C-0.526966 6.80205 4.05992 9.82177 5.69947 11.391C6.85141 12.4904 8.32548 13.7246 9.14807 14.9621C9.6895 15.7758 9.78268 16.5917 10.2462 17.4521C11.3845 19.5721 12.3766 21.8785 13.8506 23.8371C14.5953 24.8288 15.4163 25.8728 16.3586 26.7592C16.9353 27.3033 17.9258 27.5429 18.0816 28.3827C17.1145 29.3179 17.059 30.7701 16.5152 31.9549C14.0651 37.2882 14.9897 43.9179 18.5532 47.865C19.6457 49.0776 22.2219 51.6763 25.7629 50.6789C28.8604 49.8081 28.1688 47.1079 29.0548 44.726C29.2548 44.1863 29.1319 43.7892 29.5248 43.4275V43.5357L32.3468 47.4318C34.4354 49.7543 38.1402 52.181 41.2812 53.8185C42.9095 54.6677 44.1915 56.1354 46.297 56.6324V56.5237H46.1404C45.7323 56.0849 45.0937 55.903 44.5731 55.5502C43.3465 54.7198 41.9824 53.6876 40.9687 52.7363C38.1121 50.0588 35.5881 47.1284 33.2883 44.0782C32.1893 42.621 31.2342 41.0146 30.3088 39.5319C29.9521 38.9606 29.9569 38.0959 29.2131 37.8002C28.1985 38.8863 26.7052 39.7649 25.9211 41.0474C24.6672 43.0975 24.5057 45.598 24.0406 48.1906C23.7658 48.2583 23.888 48.2117 23.7265 48.2982C21.5431 47.9349 20.7767 46.3834 19.9646 45.0516C17.913 41.6847 17.5314 36.2643 19.3372 32.3887C19.8047 31.3852 21.9158 28.228 21.0611 27.3011C20.653 26.377 19.3067 25.8423 18.554 25.1361C17.6214 24.2631 16.6911 23.1137 16.0445 22.1053C14.3655 19.4811 13.5815 16.534 11.8134 13.8804C10.9676 12.6118 9.53847 11.3277 8.36484 10.2006C7.06589 8.95091 5.6103 8.03069 4.60295 6.52027C4.24468 5.98333 3.75868 5.12357 4.28886 4.57165C4.45756 4.19946 4.69694 4.04415 5.22953 3.92267C6.13888 3.43843 8.6709 4.08353 9.6172 4.35477C12.1307 5.07587 14.229 5.76257 16.3586 6.7366C17.3796 7.20476 18.4142 8.10945 19.6497 8.36017H21.0603C23.267 8.71018 25.7388 8.46833 27.8009 8.90099C31.4447 9.66535 34.7101 10.8552 37.6751 12.1481C46.7091 16.0875 54.0963 21.6943 59.1491 28.3833C59.9621 29.4605 60.3139 30.4878 61.0297 31.6304C62.474 33.934 64.2935 36.3042 65.7306 38.5574C67.1653 40.805 68.5631 43.0731 70.5906 44.9435C71.6566 45.9264 75.7728 46.4539 77.6445 47.0003C78.9555 47.3824 81.1043 47.7818 82.347 48.2982C84.7192 49.2867 87.0183 50.4632 89.2442 51.5459C90.3552 52.0867 93.7749 53.2743 93.9452 54.2522V54.2522ZM23.8815 13.0162C22.732 13.0012 21.919 13.1027 21.0595 13.232V13.3402H21.2162C21.7648 14.1178 22.7328 14.6193 23.41 15.2888C23.9321 16.047 24.4551 16.8042 24.978 17.5613L25.1339 17.4543C26.1051 16.9811 26.5493 16.2262 26.5437 15.0724C26.1549 14.7901 26.0978 14.4362 25.7605 14.099C25.3138 13.6491 24.4471 13.3934 23.8815 13.0162Z" fill="white"/>
</svg>
