<svg width="31" height="34" viewBox="0 0 31 34" fill="none" xmlns="http://www.w3.org/2000/svg">
<path d="M15.2796 33.1239C14.8151 33.1231 14.3591 33.0054 13.9585 32.7828L9.73949 30.3846C9.11058 30.0476 9.41848 29.9256 9.62594 29.8574C10.2959 29.6594 10.9365 29.3815 11.5323 29.0304C11.5827 29.0081 11.6383 28.9985 11.6938 29.0024C11.7493 29.0064 11.8027 29.0239 11.849 29.0532L15.0875 30.9014C15.1478 30.9326 15.2153 30.9489 15.284 30.9489C15.3527 30.9489 15.4203 30.9326 15.4806 30.9014L28.1113 23.897C28.1704 23.8624 28.219 23.8139 28.2527 23.7564C28.2863 23.6988 28.3038 23.6341 28.3035 23.5683V9.55115C28.3037 9.48431 28.2859 9.41853 28.2519 9.35995C28.218 9.30137 28.1688 9.25192 28.1091 9.21623L15.4871 2.21799C15.4279 2.1859 15.3609 2.16901 15.2927 2.16901C15.2246 2.16901 15.1576 2.1859 15.0984 2.21799L2.46764 9.22036C2.40702 9.25493 2.35687 9.30374 2.32206 9.36206C2.28724 9.42038 2.26893 9.48623 2.26892 9.55322V23.5642C2.26871 23.6301 2.28699 23.6949 2.32191 23.7519C2.35683 23.8089 2.40712 23.8561 2.46764 23.8887L5.92887 25.8094C7.80688 26.7108 8.95553 25.6481 8.95553 24.5813V10.7482C8.95524 10.7024 8.96452 10.657 8.98283 10.6146C9.00114 10.5723 9.02811 10.5337 9.06221 10.5013C9.09631 10.4688 9.13685 10.443 9.1815 10.4254C9.22615 10.4078 9.27404 10.3988 9.3224 10.3988H10.9231C10.9713 10.3991 11.0189 10.4083 11.0633 10.426C11.1077 10.4437 11.148 10.4695 11.1819 10.502C11.2157 10.5344 11.2425 10.5729 11.2607 10.6151C11.2789 10.6574 11.2881 10.7026 11.2878 10.7482V24.5793C11.359 25.0712 11.3137 25.5721 11.1549 26.0454C10.9962 26.5187 10.728 26.9525 10.37 27.3154C10.012 27.6783 9.57306 27.9612 9.08512 28.1434C8.59719 28.3256 8.07251 28.4026 7.5492 28.3689C6.52178 28.3857 5.51104 28.1216 4.63828 27.608L1.32554 25.7763C0.920687 25.5478 0.585595 25.2235 0.353192 24.8353C0.12079 24.4471 -0.000924576 24.0083 8.83361e-06 23.5621V9.55115C-0.00119383 9.10515 0.120426 8.66656 0.352873 8.27864C0.58532 7.89071 0.920564 7.56686 1.32554 7.33901L13.9585 0.326301C14.3645 0.112313 14.8215 0 15.2862 0C15.7509 0 16.2079 0.112313 16.6139 0.326301L29.2447 7.33901C29.6498 7.56691 29.9852 7.89072 30.218 8.2786C30.4508 8.66647 30.5729 9.10503 30.5724 9.55115V23.56C30.5725 24.0063 30.4501 24.445 30.2174 24.8331C29.9847 25.2213 29.6495 25.5455 29.2447 25.7742L16.6139 32.7828C16.2107 33.0068 15.7515 33.1246 15.284 33.1239H15.2796ZM19.182 23.4711C13.6528 23.4711 12.4954 21.0316 12.4954 18.9869C12.4939 18.9401 12.5024 18.8936 12.5205 18.8501C12.5386 18.8066 12.5658 18.767 12.6005 18.7338C12.6352 18.7005 12.6767 18.6743 12.7225 18.6567C12.7682 18.6391 12.8172 18.6304 12.8666 18.6313H14.4935C14.5816 18.6314 14.6667 18.6616 14.7333 18.7162C14.7999 18.7709 14.8434 18.8464 14.856 18.929C15.1028 20.5271 15.8365 21.3334 19.1798 21.3334C21.8396 21.3334 22.973 20.7545 22.973 19.3983C22.973 18.6147 22.6541 18.0359 18.516 17.6451C15.0613 17.3164 12.9212 16.5825 12.9212 13.9238C12.9212 11.4739 15.07 10.0143 18.671 10.0143C22.7175 10.0143 24.72 11.3643 24.9733 14.2607C24.9775 14.3094 24.9711 14.3583 24.9546 14.4045C24.9381 14.4508 24.9117 14.4933 24.8772 14.5295C24.8432 14.5651 24.8018 14.5936 24.7555 14.6131C24.7093 14.6327 24.6593 14.643 24.6086 14.6432H22.9708C22.8875 14.6425 22.807 14.6148 22.7427 14.5648C22.6783 14.5148 22.634 14.4454 22.617 14.3683C22.2239 12.6874 21.2653 12.1499 18.6732 12.1499C15.7666 12.1499 15.4303 13.1216 15.4303 13.8514C15.4303 14.7363 15.83 14.9926 19.752 15.4909C23.6346 15.9829 25.4799 16.6817 25.4799 19.3032C25.4799 21.9247 23.187 23.4629 19.1842 23.4629L19.182 23.4711Z" fill="#73B923"/>
</svg>
