<svg width="95" height="81" viewBox="0 0 95 81" fill="none" xmlns="http://www.w3.org/2000/svg">
<g clip-path="url(#clip0_298_364)">
<path d="M23.8225 28.983H7.18971L0 60.0768H8.53961L10.3381 52.0169H18.4291C26.0674 52.4 34.6112 47.0256 34.6112 37.8127C34.6112 32.4383 31.0122 29.3661 23.8225 28.983ZM17.5278 46.2593H12.1324L14.3794 34.7441H20.2234C23.3676 34.7441 25.6188 35.8971 25.6188 38.1994C25.1703 44.7268 21.5733 45.8762 17.5278 46.2593ZM53.9333 28.9848L45.8422 28.983L47.6407 20.9231H39.1011L31.9114 52.0169H40.451L44.4965 34.7442H51.2377C54.386 34.7442 54.386 35.8971 53.9333 37.8163L50.7891 52.0205H59.7773L62.9215 36.2802C63.8186 32.4418 61.123 29.3679 53.9333 28.9848ZM84.0483 28.983H67.4155L60.2258 60.0768H68.7655L70.5639 52.0169H78.655C86.2974 52.4 94.8371 47.0256 94.8371 37.8127C94.8371 32.4383 91.238 29.3661 84.0483 28.983ZM77.7536 46.2593H72.3582L74.6052 34.7441H80.4492C83.5976 34.7441 85.8447 35.8971 85.8447 38.1994C85.3961 44.7268 81.7991 45.8762 77.7536 46.2593Z" fill="white"/>
</g>
<defs>
<clipPath id="clip0_298_364">
<rect width="94.8371" height="81" fill="white"/>
</clipPath>
</defs>
</svg>
