<svg width="35" height="33" viewBox="0 0 35 33" fill="none" xmlns="http://www.w3.org/2000/svg">
<path fill-rule="evenodd" clip-rule="evenodd" d="M33.6455 19.7959C33.5226 19.0436 32.8536 18.5509 32.0754 18.5176C31.7937 18.5055 31.5076 18.5334 31.2267 18.5671C30.8874 18.6079 30.5522 18.6801 30.2137 18.7278C29.9798 18.7608 29.7426 18.776 29.5089 18.7987L29.5032 18.77C29.9394 17.992 30.3939 17.2224 30.8066 16.4332C31.123 15.8279 31.3938 15.2006 31.6736 14.5785C32.1365 13.5478 32.5064 12.4851 32.8127 11.4051C33.1061 10.371 33.3572 9.32559 33.4361 8.25284C33.4678 7.82435 33.4896 7.39406 33.4872 6.96506C33.485 6.62295 33.4459 6.28031 33.4096 5.93923C33.3687 5.54838 33.2437 5.17791 33.0706 4.82135C32.8424 4.35162 32.4886 3.96619 32.1163 3.60009C31.8182 3.30696 31.4904 3.03987 31.1653 2.77303C30.7018 2.39224 30.1807 2.08828 29.6394 1.81835C29.0262 1.51061 28.3766 1.27262 27.7041 1.10937C27.2965 1.01114 26.8797 0.93818 26.467 0.86032C26.3185 0.831961 26.1697 0.773438 26.0212 0.773438H23.2258C23.1248 0.773438 23.0246 0.82268 22.9228 0.833508C22.2534 0.903891 21.592 1.023 20.9498 1.21095C20.7095 1.28133 20.4901 1.23698 20.2619 1.21713C20.0869 1.20192 19.9149 1.15758 19.74 1.14933C19.0734 1.11788 18.406 1.07173 17.7397 1.07843C17.1012 1.08462 16.4693 1.18388 15.8513 1.34965C15.334 1.48835 14.8279 1.65773 14.3644 1.91452C14.166 2.02434 14.0087 2.00372 13.8035 1.94777C13.1137 1.75983 12.419 1.58323 11.7183 1.43498C11.2815 1.34269 10.8325 1.2968 10.3865 1.25271C9.95845 1.2107 9.5288 1.18541 9.09859 1.17691C8.67876 1.16841 8.25594 1.16866 7.83802 1.20373C7.17238 1.25838 6.51625 1.38937 5.88412 1.5938C5.18403 1.81957 4.52989 2.15656 3.94987 2.59024C3.35835 3.03239 2.88393 3.57225 2.50232 4.18868C2.10024 4.83914 1.82455 5.53549 1.65312 6.26691C1.56031 6.66316 1.50163 7.07051 1.43802 7.47295C1.4181 7.59825 1.63784 7.72355 1.36487 7.84833V9.59991C1.63784 9.71644 1.42165 9.83271 1.43748 9.9495C1.47542 10.2303 1.509 10.5133 1.55922 10.792C1.63865 11.2331 1.73283 11.673 1.82891 12.1113C1.96233 12.7238 2.10301 13.335 2.25092 13.9446C2.35902 14.388 2.48212 14.8289 2.61097 15.2674C2.80778 15.9372 3.00158 16.6083 3.22405 17.2706C3.43069 17.886 3.66735 18.4926 3.9021 19.0993C4.22721 19.9384 4.61646 20.7506 5.08323 21.5289C5.48695 22.2028 5.94827 22.8339 6.56709 23.3532C6.9749 23.6953 7.42885 23.9583 7.95731 24.0897C8.37249 24.1929 8.7945 24.2052 9.21951 24.123C9.70374 24.03 10.1561 23.8253 10.5363 23.5272C10.5808 23.4926 10.6297 23.4664 10.6823 23.5298C10.883 23.7698 11.1516 23.9299 11.4325 24.0683C12.1905 24.4417 13.0165 24.5535 13.8556 24.5992C14.0587 24.6103 14.264 24.5827 14.4687 24.5773C14.8675 24.567 15.2551 24.4935 15.6364 24.3893C15.8363 24.3347 16.0314 24.2653 16.2348 24.2006C16.2454 24.405 16.2591 24.602 16.2654 24.799L16.2937 25.873C16.2989 26.0365 16.3058 26.2005 16.3219 26.3631C16.3631 26.7826 16.4035 27.2023 16.4564 27.6205C16.4933 27.9087 16.5315 28.1993 16.6033 28.4805C16.7472 29.0484 16.9443 29.603 17.1924 30.1378C17.4298 30.6569 17.7947 31.1151 18.2569 31.4745C18.8629 31.9479 19.5732 32.1497 20.3402 32.1871C20.6574 32.2028 20.9836 32.1881 21.2959 32.1345C21.7922 32.0512 22.2831 31.9415 22.7664 31.8058C23.7466 31.5263 24.5939 31.0437 25.2269 30.2638C25.5872 29.8194 25.8831 29.3385 26.0731 28.8077C26.2298 28.3692 26.3774 27.9263 26.4948 27.4774C26.5876 27.1237 26.6335 26.7589 26.69 26.3977C26.7274 26.1587 26.7498 25.9174 26.7732 25.6766C26.8115 25.2855 26.8505 24.8946 26.8781 24.5028C26.8972 24.23 26.8964 23.9559 26.9078 23.6827C26.9114 23.5994 26.9256 23.5166 26.9338 23.4336C26.9414 23.3568 26.9823 23.3302 27.0653 23.3315C27.3577 23.3356 27.6506 23.3429 27.9421 23.3305C28.2688 23.3166 28.5986 23.3034 28.9201 23.2524C29.3783 23.1801 29.8328 23.0883 30.2822 22.9773C30.8126 22.8463 31.2991 22.6117 31.7672 22.3444C32.3126 22.0332 32.8097 21.6681 33.2131 21.1979C33.5639 20.7877 33.7301 20.3136 33.6455 19.7959ZM32.7141 20.049C32.6961 20.2849 32.5817 20.4871 32.4158 20.6598C31.6326 21.4753 30.6502 21.97 29.5264 22.2136C29.0995 22.3059 28.6589 22.3539 28.2219 22.392C27.8485 22.4231 27.4734 22.4314 27.0989 22.4171C26.8243 22.4073 26.5519 22.348 26.2713 22.3098C26.2431 22.5521 26.2164 22.8045 26.1839 23.0564L26.0532 24.0219C26.0136 24.328 25.9827 24.635 25.9421 24.9408C25.9022 25.2375 25.8525 25.5332 25.8108 25.83C25.7717 26.1064 25.7431 26.384 25.6997 26.6599C25.6328 27.0827 25.5689 27.5065 25.4816 27.926C25.3767 28.4274 25.216 28.9132 24.9536 29.3654C24.6337 29.9173 24.1801 30.3378 23.6027 30.6493C23.0077 30.9705 22.3572 31.1376 21.6977 31.2773C21.2309 31.3763 20.7499 31.3925 20.2772 31.3523C19.4572 31.2822 18.7573 30.9509 18.2283 30.3505C17.7233 29.7773 17.3815 29.1204 17.2592 28.3769C17.2021 28.023 17.1574 27.6673 17.1252 27.3106C17.089 26.9142 17.0618 26.517 17.0436 26.1195C17.0194 25.6152 17.0015 25.1106 16.9898 24.6059C16.9753 23.9856 16.9707 23.3653 16.9614 22.745L16.9598 22.7213C16.6257 22.9105 16.2973 23.1178 15.949 23.2885C15.5419 23.4873 15.0964 23.606 14.6393 23.6373C14.2795 23.6631 13.9151 23.6865 13.557 23.6595C12.9698 23.6149 12.3832 23.528 11.8575 23.2549C11.6443 23.1441 11.4218 23.0092 11.275 22.8321C10.9228 22.4078 11.0915 21.8715 11.6224 21.6135C11.9893 21.4348 12.3898 21.3603 12.7875 21.2734C13.1336 21.1992 13.4762 21.1107 13.8141 21.0081C14.1477 20.905 14.3581 20.6495 14.5659 20.3989L14.8951 19.999C14.7578 19.9854 14.6284 19.9714 14.499 19.9601C14.1062 19.925 13.7314 19.8229 13.373 19.6729C13.0662 19.5448 13.0615 19.5308 12.8366 19.7613C12.461 20.1465 12.0958 20.5407 11.7278 20.9323C11.457 21.2203 11.1879 21.5101 10.9185 21.7988C10.6515 22.0845 10.4015 22.3864 10.114 22.6522C9.68711 23.0469 9.17256 23.2843 8.55866 23.2575C8.16477 23.2405 7.80418 23.1101 7.47989 22.8968C6.81057 22.4565 6.35963 21.8406 5.94909 21.1937C5.42308 20.3649 5.01936 19.4819 4.67378 18.5746C4.43466 17.9476 4.19445 17.3201 3.98563 16.6841C3.75879 15.9929 3.5598 15.2929 3.36408 14.5932C3.21789 14.0646 3.08302 13.5332 2.95955 12.9994C2.81557 12.3932 2.68235 11.7848 2.55992 11.1744C2.47858 10.7621 2.43135 10.344 2.36557 9.92887C2.27685 9.36942 2.26048 8.80481 2.29269 8.24304C2.32135 7.73695 2.39832 7.23216 2.47475 6.72942C2.58067 6.03384 2.82333 5.37745 3.17246 4.75767C3.38619 4.37791 3.65152 4.0327 3.95833 3.71198C4.46196 3.18553 5.0715 2.805 5.74955 2.51934C6.22342 2.3198 6.72404 2.19966 7.23422 2.10581C7.99143 1.96659 8.75547 1.97201 9.51978 1.98696C9.85389 1.99341 10.1866 2.0509 10.5205 2.08209C11.2392 2.14964 11.9437 2.29247 12.6393 2.46881C13.1462 2.5972 13.6427 2.76349 14.1455 2.90787C14.196 2.9223 14.27 2.92102 14.3112 2.89549C14.9925 2.47552 15.7372 2.19837 16.529 2.03981C16.8296 1.97974 17.1397 1.95345 17.447 1.93488C17.8207 1.91245 18.1974 1.89183 18.5703 1.9122C19.0185 1.93643 19.4645 1.99882 19.91 2.05657C20.1262 2.08441 20.3372 2.15531 20.554 2.17465C20.6577 2.18393 20.7677 2.11226 20.8774 2.08828C21.4367 1.96634 21.9936 1.83047 22.5578 1.73405C22.9779 1.66237 23.407 1.6286 23.8342 1.6054C24.3105 1.57962 24.7904 1.5608 25.2665 1.58245C25.8693 1.61065 26.4682 1.69029 27.0558 1.82041C27.7865 1.98103 28.4875 2.21435 29.1538 2.53816C29.6517 2.77999 30.125 3.06049 30.5511 3.40545C30.8304 3.6318 31.1162 3.85533 31.3684 4.10747C31.6796 4.41839 31.997 4.72957 32.1922 5.12789C32.3391 5.42824 32.4439 5.73916 32.4728 6.06813C32.5088 6.47702 32.5525 6.88746 32.5484 7.29687C32.5446 7.68848 32.4881 8.07984 32.448 8.47043C32.3568 9.36091 32.1518 10.2321 31.9029 11.0916C31.6946 11.8016 31.4589 12.5042 31.1961 13.1979C30.9562 13.8376 30.6794 14.4656 30.3996 15.0911C30.1937 15.5543 29.9699 16.0104 29.7287 16.4582C29.2709 17.3054 28.7948 18.1438 28.2443 18.9417C28.1493 19.0797 28.0592 19.221 27.9664 19.3617C28.2066 19.5149 28.4788 19.5687 28.7528 19.5966C29.0135 19.6234 29.2794 19.6394 29.5398 19.6211C29.9566 19.5919 30.3721 19.5357 30.7864 19.4808C31.197 19.4267 31.5993 19.3163 32.0208 19.3455C32.4417 19.3744 32.7428 19.6765 32.7141 20.049ZM26.7053 19.1846C26.5265 18.9665 26.3441 18.751 26.1692 18.5303C25.8946 18.1838 25.6972 17.7968 25.499 17.408C25.3112 17.0396 25.0808 16.6908 24.8829 16.3265C24.5376 15.691 24.1861 15.0575 23.8681 14.4097C23.4682 13.5957 23.1529 12.753 23.0535 11.8514C23.0115 11.4698 23.0008 11.0888 23.0825 10.7108C23.2132 10.1073 23.547 9.63523 24.1083 9.31141C24.6288 9.01106 25.2089 8.91413 25.8031 8.8837C26.1719 8.86488 26.5423 8.88035 26.925 8.88035L26.9122 8.81925C26.6742 8.34926 26.4517 7.87127 26.1913 7.41237C25.8239 6.76474 25.3538 6.1808 24.8303 5.63939C24.4424 5.23849 24.0223 4.86647 23.5621 4.53776C23.1095 4.2142 22.6326 3.9252 22.1238 3.68878C21.517 3.40699 20.8851 3.18914 20.222 3.05018C19.5849 2.91663 18.9437 2.83491 18.2902 2.8282C17.7328 2.82253 17.179 2.84625 16.636 2.9651C15.8166 3.14428 15.067 3.46294 14.4149 3.97908C14.0541 4.26486 13.7317 4.59127 13.4549 4.95103C13.1284 5.37462 12.865 5.83198 12.6398 6.31151C12.3308 6.96945 12.1187 7.65419 11.9738 8.35802C11.9011 8.70891 11.8444 9.06288 11.7865 9.4166C11.7663 9.54035 11.7647 9.66694 11.7529 9.80873C11.8537 9.75923 11.9263 9.72108 12.0005 9.68705L12.2421 9.58469C13.0591 9.23175 13.9056 9.00462 14.8154 9.03066C15.2019 9.04174 15.5717 9.11393 15.9154 9.27377C16.5746 9.58083 16.9603 10.1029 17.1279 10.7637C17.2437 11.2197 17.3228 11.6848 17.3998 12.1486C17.4601 12.5109 17.5218 12.877 17.5289 13.2423C17.539 13.7762 17.5104 14.3112 17.4795 14.8448C17.453 15.2986 17.3536 15.746 17.1847 16.1715C16.879 16.9432 16.5383 17.7022 16.22 18.4694C16.115 18.7229 16.0342 18.9853 15.9348 19.264C16.0882 19.264 16.2127 19.263 16.3371 19.2645C16.3857 19.2653 16.4354 19.2666 16.4824 19.2772C16.8481 19.3586 17.1653 19.5151 17.4255 19.7809C17.7724 20.1346 17.9545 20.5474 17.9638 21.0251C17.9689 21.2899 17.9395 21.5554 17.9408 21.8202C17.9466 23.0541 17.9564 24.288 17.9673 25.5216C17.9692 25.7232 17.9799 25.9251 17.9952 26.1265C18.0271 26.548 18.0593 26.9698 18.103 27.3903C18.1335 27.6885 18.1761 27.9863 18.2261 28.2825C18.2968 28.7023 18.4991 29.0758 18.7286 29.4329C18.9262 29.74 19.1831 30.0009 19.5216 30.1808C20.0967 30.4866 20.7161 30.5121 21.3404 30.3994C21.7621 30.3234 22.1762 30.2012 22.5856 30.0751C22.9883 29.9531 23.356 29.7455 23.6603 29.4682C23.9472 29.2055 24.1508 28.8853 24.2881 28.5319C24.5546 27.8463 24.6375 27.1245 24.7478 26.4082C24.789 26.1401 24.8248 25.8712 24.8625 25.6026C24.9053 25.2968 24.9487 24.9913 24.9902 24.6858C25.0208 24.4582 25.0486 24.23 25.0781 24.0023C25.1202 23.6754 25.1646 23.3488 25.2048 23.0216C25.2356 22.7687 25.2618 22.5148 25.2891 22.2613C25.3243 21.9375 25.3623 21.6137 25.3926 21.2894C25.4161 21.0432 25.4065 20.7926 25.4526 20.551C25.5375 20.1081 25.7592 19.7312 26.1749 19.4875C26.3488 19.3857 26.545 19.3187 26.738 19.2326L26.7053 19.1846ZM10.9832 17.3665C10.7758 16.906 10.6509 16.4162 10.6136 15.9171C10.5786 15.4466 10.6379 14.9779 10.6889 14.5094C10.7386 14.0557 10.7798 13.5999 10.7943 13.1441C10.8183 12.3949 10.7648 11.6467 10.7268 10.898C10.7039 10.4522 10.7588 10.0011 10.8008 9.55427C10.8388 9.15183 10.886 8.74835 10.9665 8.35184C11.1016 7.68642 11.281 7.03055 11.5359 6.39478C11.778 5.79202 12.0562 5.20498 12.449 4.67646C12.7181 4.31398 13.0236 3.97521 13.317 3.62098L13.23 3.59184C12.2751 3.30541 11.3047 3.08163 10.3067 2.98392C9.83478 2.93777 9.36118 2.9107 8.88786 2.88415C8.74264 2.8759 8.59524 2.89446 8.44947 2.90761C8.08861 2.94009 7.72338 2.95298 7.36825 3.01692C6.7639 3.12546 6.18411 3.30799 5.64719 3.60525C5.16512 3.87209 4.76031 4.21704 4.42129 4.63083C4.04678 5.08767 3.79483 5.60433 3.61385 6.15527C3.40012 6.80522 3.2983 7.47398 3.27073 8.14894C3.24671 8.74062 3.2347 9.33565 3.34279 9.92501C3.42332 10.3638 3.47709 10.8072 3.56581 11.2442C3.68673 11.84 3.81639 12.4346 3.96625 13.0242C4.18053 13.8683 4.39454 14.7136 4.6484 15.5474C4.89134 16.3463 5.1654 17.1381 5.46239 17.9203C5.70533 18.5586 5.98621 19.1851 6.28211 19.8034C6.47482 20.2061 6.70821 20.5935 6.95279 20.9707C7.21293 21.3711 7.50883 21.7511 7.91036 22.0417C8.41699 22.4085 8.80924 22.4655 9.32406 22.0631C9.54462 21.8906 9.73106 21.6776 9.92295 21.4747C10.2279 21.1525 10.5221 20.8215 10.8257 20.4982C11.2122 20.0862 11.6036 19.6786 11.992 19.2686C12.0742 19.182 12.1531 19.0928 12.2331 19.0052L12.101 18.8956C11.6212 18.4637 11.2407 17.9432 10.9832 17.3665ZM25.6382 5.10262C25.9558 5.45136 26.2572 5.81298 26.5415 6.18647C27.0874 6.91066 27.5236 7.69261 27.8449 8.52921C27.9871 8.89788 28.1007 9.27016 28.0499 9.67364C28.0147 9.9562 28.0177 10.2429 27.9912 10.527C27.9691 10.7634 27.9295 10.9985 27.8971 11.2342C27.8485 11.5894 27.778 11.9437 27.757 12.3005C27.7371 12.64 27.7578 12.9832 27.7805 13.3235C27.8034 13.6692 27.8528 14.0134 27.8864 14.3586C27.9244 14.75 27.9754 15.1413 27.9871 15.5335C27.9967 15.8555 27.9664 16.1795 27.9366 16.501C27.9011 16.8883 27.7971 17.2631 27.6421 17.6228C27.5332 17.8759 27.403 18.1214 27.2799 18.3748L27.3293 18.4243L27.4043 18.4792L27.48 18.3514C28.1185 17.4022 28.686 16.4122 29.1784 15.3883C29.4934 14.7274 29.7926 14.0598 30.0756 13.3861C30.5189 12.3384 30.8697 11.2612 31.141 10.1627C31.2627 9.66952 31.3558 9.16884 31.4385 8.66817C31.503 8.27681 31.5567 7.88081 31.5687 7.48584C31.5816 7.0669 31.557 6.6446 31.5161 6.22669C31.4855 5.91113 31.4031 5.5935 31.1937 5.33698C30.8571 4.92396 30.4938 4.52899 30.0469 4.21652C29.6708 3.9533 29.296 3.68337 28.8923 3.46191C28.2522 3.11128 27.5594 2.8777 26.8355 2.71863C26.129 2.56317 25.4133 2.49614 24.693 2.48196C24.2682 2.47345 23.8416 2.51651 23.4177 2.55415C23.0336 2.58818 22.652 2.64619 22.2652 2.69414C22.6801 2.91457 23.0893 3.11051 23.4753 3.34151C24.2868 3.82697 25.014 4.41117 25.6382 5.10262ZM15.0949 18.695C15.3572 17.9028 15.7145 17.1463 16.0606 16.3853C16.3412 15.7681 16.4946 15.1179 16.5457 14.4501C16.5711 14.1209 16.564 13.7876 16.5468 13.4573C16.5297 13.0899 16.494 12.7235 16.4398 12.3593C16.3672 11.895 16.2845 11.4304 16.1682 10.9746C16.0421 10.4814 15.7241 10.138 15.1792 10.0114C14.8473 9.93429 14.5175 9.93738 14.1821 9.9874C13.3626 10.1093 12.6125 10.3945 11.9137 10.8121C11.7731 10.8962 11.6959 10.964 11.7202 11.1545C11.7715 11.558 11.7827 11.9679 11.7808 12.3753C11.778 12.9517 11.7521 13.5282 11.7289 14.1044C11.7213 14.2921 11.6926 14.4787 11.6713 14.6657C11.6386 14.9518 11.5755 15.2378 11.5774 15.5234C11.5793 15.8178 11.6113 16.1192 11.6869 16.4044C11.9271 17.3085 12.4359 18.0484 13.2698 18.5705C13.7827 18.8915 14.3502 19.0534 14.9731 19.0841C15.0154 18.949 15.0531 18.8213 15.0949 18.695ZM14.116 10.9382C14.0063 10.7206 14.0691 10.5404 14.3235 10.4569C14.3854 10.4363 14.4493 10.4143 14.5137 10.4084C14.6022 10.4002 14.6922 10.4063 14.7818 10.4063C15.1044 10.4079 15.4148 10.4504 15.6812 10.6443C15.8521 10.7686 15.8979 10.9336 15.7874 11.103C15.6304 11.3432 15.391 11.4639 15.0971 11.4871C14.6338 11.5234 14.3087 11.3195 14.116 10.9382ZM26.9564 10.8588C26.9935 10.569 27.0233 10.2785 27.0612 9.98869C27.0765 9.87216 27.0115 9.8407 26.9081 9.83787C26.5827 9.82936 26.2573 9.81853 25.932 9.81286C25.5651 9.80667 25.208 9.86236 24.8685 9.9941C24.4918 10.1405 24.2049 10.3751 24.0878 10.7624C24.0021 11.0479 23.975 11.3463 24.0078 11.6415C24.0534 12.098 24.1629 12.5467 24.3335 12.976C24.5611 13.5486 24.7994 14.1209 25.0841 14.6695C25.4698 15.4123 25.9063 16.1313 26.316 16.8627C26.4255 17.0579 26.5175 17.2616 26.6316 17.4895C26.8616 17.0364 26.9873 16.5424 27.0004 16.0401C27.0115 15.625 26.9763 15.2081 26.9507 14.7928C26.9346 14.5386 26.8966 14.2859 26.8704 14.0322C26.8338 13.6788 26.7784 13.3256 26.77 12.9713C26.7615 12.6112 26.7885 12.2489 26.8213 11.8893C26.8521 11.5443 26.9125 11.2022 26.9564 10.8588ZM26.2224 10.5799C26.1015 10.8952 25.843 11.073 25.5078 11.1254C25.1952 11.1739 24.9214 11.0648 24.7178 10.8294C24.5729 10.6618 24.6283 10.4633 24.8455 10.3501C25.095 10.2197 25.3694 10.1867 25.6928 10.1668C25.7807 10.182 25.9131 10.1947 26.039 10.2287C26.2216 10.2774 26.289 10.4071 26.2224 10.5799ZM16.5533 20.2891C16.3745 20.1511 16.1382 20.1431 15.9681 20.2945C15.7571 20.4827 15.5715 20.698 15.3859 20.9101C15.1716 21.1553 14.9707 21.4103 14.6942 21.6003C14.2918 21.8764 13.8228 21.9909 13.3514 22.0992C12.9766 22.1853 12.6002 22.2652 12.2243 22.348L12.2197 22.3939C12.3313 22.4426 12.4394 22.5034 12.5557 22.5382C13.129 22.7097 13.712 22.795 14.3177 22.7465C14.755 22.7115 15.1716 22.6215 15.5663 22.4446C16.1095 22.2015 16.5274 21.8164 16.8828 21.3683C16.9423 21.2935 16.9693 21.1829 16.9764 21.0865C17.0007 20.7459 16.8176 20.4927 16.5533 20.2891ZM30.6797 20.4247C30.2184 20.4713 29.7565 20.5208 29.2938 20.5459C29.0705 20.558 28.844 20.5177 28.6185 20.5005C28.2404 20.4716 27.8714 20.3922 27.5518 20.2014C27.3667 20.0913 27.213 20.079 27.0165 20.1413C26.7359 20.2305 26.5068 20.3662 26.4391 20.6534C26.393 20.8475 26.3764 21.0486 26.3578 21.2474C26.3542 21.2824 26.4006 21.3469 26.4361 21.3556C26.6526 21.4095 26.8702 21.4732 27.0915 21.492C27.3634 21.5152 27.6402 21.5077 27.914 21.4949C28.2096 21.4809 28.5071 21.4629 28.7984 21.4165C29.4849 21.3077 30.149 21.1303 30.7389 20.7627C30.9516 20.6299 31.1623 20.4943 31.3736 20.36L31.3561 20.3316C31.1306 20.3633 30.9062 20.402 30.6797 20.4247Z" fill="#336791"/>
</svg>
