<svg width="55" height="55" viewBox="0 0 55 55" fill="none" xmlns="http://www.w3.org/2000/svg">
<g clip-path="url(#clip0_298_376)">
<rect width="54.9057" height="55" rx="27.4528" fill="#73A952"/>
<rect width="54.9057" height="55" fill="#FF6C37"/>
<path d="M48.1694 30.1675C49.6358 18.7071 41.5568 8.21677 30.116 6.74785C18.6753 5.27892 8.20297 13.3719 6.73657 24.8322C5.27016 36.2926 13.3492 46.783 24.7899 48.2519C36.2307 49.7208 46.703 41.6279 48.1694 30.1675Z" fill="#FF6C37"/>
<path d="M34.9855 20.0235L26.1732 28.8509L23.6831 26.3565C32.357 17.6677 33.2147 18.4298 34.9855 20.0235Z" fill="white"/>
<path d="M26.173 29.0588C26.1177 29.0588 26.0624 29.0311 26.0209 28.9895L23.5169 26.4812C23.4339 26.3981 23.4339 26.2734 23.5169 26.1902C32.3292 17.3628 33.256 18.1943 35.1098 19.8572C35.1928 19.9404 35.2066 20.0651 35.1236 20.1621L26.3252 28.9895C26.2837 29.0311 26.2284 29.0588 26.173 29.0588ZM23.9734 26.3426L26.173 28.546L34.6809 20.0235C33.1315 18.6654 32.094 18.2358 23.9734 26.3426Z" fill="#FF6C37"/>
<path d="M28.7036 31.3732L26.2964 28.9619L35.1087 20.1345C37.4743 22.5181 33.9605 26.3982 28.7036 31.3732Z" fill="white"/>
<path d="M28.7036 31.5809C28.6344 31.5809 28.5929 31.5532 28.5514 31.5116L26.1443 29.1004C26.1028 29.0588 26.0889 29.0034 26.0889 28.948C26.0889 28.8925 26.1166 28.8371 26.1443 28.7955L34.9565 19.9681C35.0395 19.885 35.164 19.885 35.247 19.9681C35.7866 20.4809 36.0771 21.1876 36.0632 21.9221C36.0356 24.2363 33.3933 27.188 28.8419 31.4978C28.8004 31.5671 28.7589 31.5809 28.7036 31.5809ZM26.587 28.9618C27.9289 30.3199 28.4822 30.8603 28.7036 31.0821C32.2174 27.7285 35.6067 24.3056 35.6482 21.9498C35.6621 21.3955 35.4684 20.855 35.0949 20.4531L26.587 28.9618Z" fill="#FF6C37"/>
<path d="M23.7378 26.4121L25.5086 28.1859C25.5362 28.2137 25.5362 28.2691 25.5086 28.3107C25.4947 28.3245 25.4809 28.3245 25.4671 28.3384L21.8011 29.1283C21.6212 29.1698 21.4275 29.0451 21.386 28.865C21.3584 28.7541 21.3999 28.6294 21.4829 28.5462L23.6133 26.4121C23.6548 26.3844 23.7102 26.3844 23.7378 26.4121Z" fill="white"/>
<path d="M21.7326 29.3361C21.4283 29.3361 21.1793 29.0866 21.1793 28.7818C21.1793 28.6293 21.2346 28.4908 21.3453 28.3938L23.4757 26.2597C23.5864 26.1488 23.7801 26.1488 23.8907 26.2597L25.6615 28.0335C25.7721 28.1443 25.7721 28.3383 25.6615 28.4492C25.62 28.4908 25.5646 28.5185 25.5093 28.5323L21.8433 29.3222C21.8156 29.3361 21.7741 29.3361 21.7326 29.3361ZM23.6832 26.6477L21.6358 28.6986C21.5943 28.7402 21.5804 28.8095 21.6081 28.8649C21.6358 28.9204 21.6911 28.9481 21.7603 28.9342L25.205 28.1859L23.6832 26.6477Z" fill="#FF6C37"/>
<path d="M39.6466 15.1319C38.3047 13.8432 36.1604 13.8847 34.8738 15.2289C33.5873 16.5731 33.6288 18.7211 34.9707 20.0099C36.0774 21.0769 37.7513 21.2571 39.0517 20.4672L36.6861 18.0975L39.6466 15.1319Z" fill="white"/>
<path d="M37.309 21.16C35.3307 21.16 33.7122 19.5525 33.7122 17.5708C33.7122 15.5891 35.3169 13.9678 37.2952 13.9678C38.222 13.9678 39.1213 14.3281 39.7853 14.9655C39.8683 15.0487 39.8683 15.1734 39.7853 15.2565L36.977 18.0835L39.1904 20.3008C39.2734 20.3839 39.2734 20.5225 39.1904 20.6056C39.1766 20.6195 39.1628 20.6334 39.1489 20.6334C38.6094 20.9798 37.973 21.16 37.309 21.16ZM37.309 14.3974C35.5659 14.3974 34.141 15.8247 34.141 17.5708C34.141 19.3169 35.5659 20.7442 37.309 20.7442C37.7932 20.7442 38.2774 20.6334 38.7062 20.4116L36.5343 18.236C36.4513 18.1528 36.4513 18.0281 36.5343 17.945L39.3426 15.1318C38.7754 14.6607 38.056 14.3974 37.309 14.3974Z" fill="#FF6C37"/>
<path d="M39.7142 15.1734L39.6588 15.1318L36.6845 18.0974L39.0501 20.4671C39.2853 20.3285 39.5066 20.1622 39.7003 19.9682C41.0284 18.6379 41.0284 16.5038 39.7142 15.1734Z" fill="white"/>
<path d="M39.0524 20.675C38.9971 20.675 38.9417 20.6472 38.9002 20.6195L36.5346 18.2498C36.4516 18.1667 36.4516 18.042 36.5346 17.9588L39.4951 14.9933C39.5781 14.9101 39.7026 14.9101 39.7856 14.9933L39.8409 15.0348C41.2382 16.4345 41.252 18.7072 39.8548 20.1068C39.6473 20.3147 39.4121 20.4948 39.1492 20.6472C39.1354 20.6611 39.0939 20.675 39.0524 20.675ZM36.9911 18.0974L39.0801 20.2038C39.2461 20.0929 39.4121 19.9682 39.5504 19.8158C40.754 18.6101 40.7955 16.6701 39.6473 15.4229L36.9911 18.0974Z" fill="#FF6C37"/>
<path d="M35.3438 20.3839C34.8458 19.885 34.0295 19.885 33.5315 20.3839L25.66 28.269L26.9742 29.5855L35.3023 22.2686C35.828 21.7974 35.8833 20.9798 35.4129 20.4532C35.3853 20.4255 35.3714 20.4116 35.3438 20.3839Z" fill="white"/>
<path d="M26.9742 29.8073C26.9188 29.8073 26.8635 29.7796 26.822 29.7519L25.5077 28.4354C25.4247 28.3522 25.4247 28.2275 25.5077 28.1443L33.3793 20.2593C33.9603 19.6772 34.9149 19.6772 35.4959 20.2593C36.0769 20.8413 36.0769 21.7975 35.4959 22.3795C35.4682 22.4072 35.4544 22.4211 35.4267 22.4488L27.0987 29.7657C27.0572 29.7796 27.0157 29.7934 26.9742 29.8073ZM25.9504 28.2829L26.9742 29.3084L35.1501 22.1162C35.6066 21.7282 35.6619 21.0492 35.2746 20.5919C34.8872 20.1346 34.2093 20.0791 33.7528 20.4671C33.7251 20.4949 33.6975 20.5087 33.6698 20.5364L25.9504 28.2829Z" fill="#FF6C37"/>
<path d="M19.6151 37.2487C19.5459 37.2903 19.5044 37.3735 19.5183 37.4566L19.878 38.9671C19.9471 39.1888 19.8365 39.4244 19.6151 39.4937C19.4491 39.5491 19.2693 39.4937 19.1586 39.369L16.876 37.0824L24.374 29.5715L26.9471 29.6131L28.7041 31.373C28.2614 31.7333 25.7436 34.1723 19.6151 37.2487Z" fill="white"/>
<path d="M19.4489 39.7017C19.2829 39.7017 19.1169 39.6324 19.0062 39.5077L16.7236 37.2211C16.6406 37.138 16.6406 37.0133 16.7236 36.9301L24.2217 29.4192C24.2632 29.3776 24.3185 29.3638 24.3738 29.3638L26.9608 29.4053C27.0161 29.4053 27.0715 29.4331 27.0991 29.4608L28.8561 31.2207C28.9391 31.3039 28.9391 31.4286 28.8561 31.5117L28.8422 31.5256L28.69 31.6503C26.4766 33.5904 23.4746 35.5305 19.7256 37.4151L20.0715 38.9118C20.1406 39.1889 20.0161 39.4799 19.7671 39.6185C19.6703 39.674 19.5596 39.7017 19.4489 39.7017ZM17.1525 37.0826L19.2968 39.2166C19.3521 39.3137 19.4766 39.3552 19.5873 39.2998C19.6841 39.2444 19.7256 39.1196 19.6703 39.0088L19.3106 37.4983C19.2691 37.3181 19.3521 37.138 19.5181 37.0548C23.2256 35.1979 26.1999 33.2717 28.3995 31.3593L26.864 29.8211L24.4568 29.7795L17.1525 37.0826Z" fill="#FF6C37"/>
<path d="M15.0621 38.8701L16.8605 37.0686L19.5304 39.7432L15.2696 39.4521C15.0759 39.4244 14.9514 39.2581 14.9652 39.078C14.9791 39.0087 15.0067 38.9255 15.0621 38.8701Z" fill="white"/>
<path d="M19.5318 39.9649L15.2571 39.6739C14.9527 39.6462 14.7314 39.369 14.759 39.0641C14.7729 38.9394 14.8282 38.8147 14.9112 38.7315L16.7096 36.93C16.7926 36.8469 16.9172 36.8469 17.0002 36.93L19.6701 39.6046C19.7531 39.6877 19.7531 39.8125 19.6701 39.8956C19.6425 39.9372 19.5871 39.9649 19.5318 39.9649ZM16.8618 37.3735L15.2156 39.0226C15.1741 39.0641 15.1602 39.1057 15.1879 39.1611C15.2017 39.2166 15.2432 39.2443 15.2986 39.2443L18.9923 39.4937L16.8618 37.3735Z" fill="#FF6C37"/>
<path d="M23.5992 30.5418C23.4885 30.5418 23.3917 30.4448 23.3917 30.3339C23.3917 30.2785 23.4193 30.2231 23.447 30.1815L25.4806 28.1444C25.5636 28.0612 25.6881 28.0612 25.7711 28.1444L27.0853 29.4609C27.1683 29.544 27.1683 29.6687 27.0853 29.7519C27.0577 29.7796 27.0162 29.8073 26.9747 29.8073L23.6268 30.5279C23.6268 30.5418 23.613 30.5418 23.5992 30.5418ZM25.6328 28.5878L24.2632 29.9736L26.532 29.4886L25.6328 28.5878Z" fill="#FF6C37"/>
<path d="M26.9328 29.6132L24.6364 30.1121C24.4704 30.1536 24.3044 30.0428 24.2629 29.8765C24.2352 29.7656 24.2767 29.6548 24.3459 29.5855L25.6186 28.3105L26.9328 29.6132Z" fill="white"/>
<path d="M24.5795 30.3201C24.289 30.3201 24.0538 30.0845 24.0538 29.7935C24.0538 29.6549 24.1091 29.5163 24.2059 29.4193L25.4787 28.1444C25.5617 28.0612 25.6862 28.0612 25.7692 28.1444L27.0834 29.4609C27.1664 29.544 27.1664 29.6687 27.0834 29.7519C27.0558 29.7796 27.0143 29.8073 26.9727 29.8073L24.6763 30.3062C24.6486 30.3201 24.621 30.3201 24.5795 30.3201ZM25.617 28.5878L24.4965 29.7103C24.455 29.738 24.455 29.7935 24.4826 29.835C24.4965 29.8766 24.5518 29.9043 24.5933 29.8905L26.5024 29.4747L25.617 28.5878Z" fill="#FF6C37"/>
<path d="M39.7313 17.1828C39.6898 17.0581 39.5514 16.9888 39.4269 17.0304C39.3024 17.072 39.2333 17.2105 39.2748 17.3353C39.2748 17.363 39.2886 17.3768 39.3024 17.3907C39.4269 17.654 39.3993 17.9589 39.2194 18.1806C39.1364 18.2776 39.1502 18.43 39.2471 18.527C39.3439 18.624 39.4961 18.5963 39.5929 18.4993C39.8835 18.1252 39.9388 17.6124 39.7313 17.1828Z" fill="#FF6C37"/>
</g>
<defs>
<clipPath id="clip0_298_376">
<rect width="54.9057" height="55" rx="27.4528" fill="white"/>
</clipPath>
</defs>
</svg>
