<svg width="35" height="26" viewBox="0 0 35 26" fill="none" xmlns="http://www.w3.org/2000/svg">
<g clip-path="url(#clip0_164_197)">
<path fill-rule="evenodd" clip-rule="evenodd" d="M31.4615 26.2381L12.5155 30.6313C11.9368 30.7656 11.382 30.3732 11.5037 29.9154L18.2718 4.50129C18.3985 4.02605 19.2363 3.95058 19.5007 4.39068L32.0325 25.2549C32.2689 25.6485 31.9995 26.1136 31.4615 26.2381ZM34.7103 25.202L20.2001 1.04319C19.8362 0.439245 19.0768 0.0402448 18.2161 0.00327963C17.3331 -0.0370347 16.5419 0.296851 16.0957 0.865138L0.358713 20.8495C-0.12879 21.4723 -0.119233 22.2403 0.386401 22.8557L8.07895 32.1983C8.53746 32.756 9.33181 33.0788 10.1574 33.0788C10.3914 33.0788 10.6268 33.053 10.8582 32.9992L33.1884 27.8215C33.8724 27.6628 34.4317 27.2835 34.7244 26.7805C35.0161 26.2774 35.0105 25.7017 34.7103 25.202Z" fill="#00BFA5"/>
</g>
<defs>
<clipPath id="clip0_164_197">
<rect width="34.9399" height="25.0597" fill="white"/>
</clipPath>
</defs>
</svg>
