<svg width="35" height="34" viewBox="0 0 35 34" fill="none" xmlns="http://www.w3.org/2000/svg">
<path d="M13.9529 22.0966C14.6035 21.6751 15.1599 21.1364 15.5905 20.5112C16.0211 19.8861 16.3174 19.1867 16.4624 18.4531C16.6074 17.7195 16.5983 16.966 16.4356 16.2357C16.2729 15.5055 15.9598 14.8127 15.5143 14.197L10.5594 17.4057C10.2343 17.6243 9.8665 17.7795 9.47743 17.8621C9.08835 17.9447 8.68578 17.9532 8.29322 17.8869C7.90066 17.8207 7.52597 17.6811 7.19102 17.4762C6.85607 17.2714 6.56757 17.0055 6.34235 16.6939C6.11713 16.3824 5.95971 16.0315 5.87927 15.6618C5.79883 15.292 5.79699 14.9108 5.87385 14.5404C5.95071 14.17 6.10473 13.8177 6.32693 13.5043C6.54912 13.1908 6.83505 12.9224 7.168 12.7147L7.17237 12.7126L11.6905 9.78512L14.5971 7.89963C15.2478 7.47829 15.8045 6.93968 16.2353 6.31458C16.6661 5.68948 16.9626 4.99014 17.1078 4.25653C17.253 3.52292 17.2441 2.7694 17.0816 2.03905C16.919 1.30869 16.6061 0.615814 16.1606 0L11.2079 3.21071L3.78539 8.01954L3.77665 8.02574C1.85623 9.32275 0.549847 11.2812 0.138226 13.4803C-0.273395 15.6794 0.242595 17.9436 1.57532 19.7864C2.90804 21.6291 4.95113 22.9034 7.26558 23.3354C9.58002 23.7674 11.9811 23.3226 13.9529 22.0966ZM20.467 10.9842L20.4626 10.9863C20.452 10.994 20.4418 11.0023 20.432 11.0111L20.4692 10.9863C19.8184 11.4076 19.2617 11.9462 18.831 12.5713C18.4002 13.1964 18.1037 13.8958 17.9585 14.6294C17.8133 15.363 17.8222 16.1165 17.9847 16.8469C18.1472 17.5772 18.4601 18.2701 18.9056 18.8859L23.8583 15.6752L23.8562 15.6731C24.1814 15.4623 24.5472 15.3142 24.9329 15.2373C25.3186 15.1603 25.7164 15.156 26.1039 15.2247C26.4913 15.2933 26.8606 15.4335 27.1908 15.6373C27.521 15.841 27.8055 16.1044 28.0282 16.4123C28.2509 16.7201 28.4073 17.0665 28.4886 17.4316C28.5699 17.7968 28.5744 18.1735 28.5019 18.5402C28.4294 18.907 28.2813 19.2567 28.0661 19.5693C27.8509 19.8819 27.5727 20.1513 27.2475 20.3621L22.7272 23.2937L19.8184 25.1792C19.1678 25.6007 18.6114 26.1394 18.1808 26.7646C17.7502 27.3897 17.4539 28.0891 17.3089 28.8227C17.1639 29.5563 17.173 30.3098 17.3357 31.0401C17.4984 31.7703 17.8115 32.4631 18.257 33.0788L23.2119 29.8702L30.641 25.0531C32.6116 23.7758 33.9656 21.8096 34.405 19.5873C34.8444 17.3649 34.3334 15.0682 32.9842 13.2026C31.635 11.3369 29.5583 10.0551 27.2109 9.63909C24.8634 9.22307 22.4376 9.70693 20.467 10.9842Z" fill="#89DDFF"/>
</svg>
