<svg width="35" height="30" viewBox="0 0 35 30" fill="none" xmlns="http://www.w3.org/2000/svg">
<path d="M20.5205 14.6046C20.5205 12.3406 17.931 10.9178 15.8706 12.0499C13.8102 13.1819 13.8102 16.0273 15.8706 17.1594C17.931 18.2914 20.5205 16.8687 20.5205 14.6046ZM27.6184 9.16664C29.6698 -0.116767 25.1567 -3.02997 17.4845 3.68982C10.2635 -2.71923 5.12133 -0.699407 7.30949 9.1278C-2.78085 12.0077 -2.11231 17.4289 7.39155 20.198C5.21706 29.2483 9.27884 32.55 17.4845 25.7136C25.4439 32.4723 29.6682 29.3079 27.4953 20.1591C37.8617 16.8316 36.9318 12.0151 27.6184 9.16664ZM26.2234 8.81706C24.5972 8.46977 23.0236 8.21697 21.4231 8.07905C20.5799 6.91175 19.5978 5.74574 18.4691 4.66089C24.6203 -0.925061 28.2456 0.820333 26.2234 8.81706ZM10.3456 16.3914C10.9542 17.6214 11.7542 18.7478 12.3559 19.693C11.3761 19.5981 10.3205 19.4541 9.19678 19.2657C9.55684 18.3116 9.94018 17.3534 10.3456 16.3914ZM10.2635 13.0509C9.81588 12.0336 9.4074 11.0518 9.0737 10.1377C10.2337 9.91006 11.3705 9.70337 12.3559 9.63275C11.6225 10.7236 10.9258 11.8641 10.2635 13.0509ZM11.1251 14.76C12.1284 12.8577 13.1897 11.0521 14.3663 9.43854C16.4541 9.32487 18.5197 9.33494 20.5616 9.47738C21.7067 10.9881 22.7756 12.7937 23.8028 14.76C23.0341 16.2639 21.9426 17.997 20.6846 19.8484C18.5844 19.999 16.4307 19.9781 14.2432 19.8484C13.1345 18.2403 12.0933 16.5466 11.1251 14.76ZM24.5823 16.3914C24.9807 17.3066 25.3489 18.2395 25.6901 19.1881C24.637 19.398 23.5983 19.5509 22.5719 19.6542C23.2744 18.6237 23.9409 17.5296 24.5823 16.3914ZM22.5719 9.63275C23.6906 9.77774 24.7713 9.95879 25.8131 10.1766C25.4646 11.1572 25.0686 12.1156 24.6233 13.0509C23.9883 11.8651 23.3065 10.7238 22.5719 9.63275ZM19.4128 7.92367C18.135 7.87622 16.8351 7.87774 15.5151 7.92367C16.093 7.20417 16.737 6.45258 17.4434 5.6708C18.1318 6.3743 18.7841 7.13151 19.4128 7.92367ZM16.4587 4.66089C15.3301 5.74574 14.3479 6.87291 13.5047 8.0402C11.9043 8.17812 10.2897 8.43093 8.66342 8.77821C6.7351 0.660089 10.3076 -0.925061 16.4587 4.66089ZM7.7608 18.9162C-0.786713 16.482 -0.376432 12.6884 7.67875 10.4485C8.17149 11.8641 8.76802 13.3017 9.44295 14.6823C8.78712 16.1101 8.20653 17.5765 7.7608 18.9162ZM8.82753 20.5476C10.2772 20.8842 11.8134 21.0458 13.4227 21.2079C14.3909 22.5016 15.3937 23.7043 16.4587 24.7426C10.1951 30.4265 6.70337 28.3614 8.82753 20.5476ZM17.4434 23.7715C16.7012 23.0438 16.0082 22.2193 15.351 21.3244C16.8159 21.3536 18.2308 21.3569 19.5769 21.3244C18.925 22.2 18.213 23.0148 17.4434 23.7715ZM18.4691 24.7426C19.6119 23.567 20.6194 22.3753 21.5052 21.169C23.0171 21.0637 24.5487 20.8438 26.1003 20.5087C28.2437 28.8258 24.352 30.0539 18.4691 24.7426ZM27.126 18.8385C26.6866 17.4988 26.1316 16.1101 25.4849 14.6823C26.1504 13.3017 26.7223 11.9029 27.2081 10.4873C35.0718 12.7402 35.7009 16.3396 27.126 18.8385Z" fill="#61DAFB"/>
</svg>
