<svg width="30" height="27" viewBox="0 0 30 27" fill="none" xmlns="http://www.w3.org/2000/svg">
<path fill-rule="evenodd" clip-rule="evenodd" d="M20.2826 18.3736C21.3629 18.2678 22.1824 17.3862 22.1451 16.3282C22.1079 15.2702 21.1766 14.4238 20.0591 14.4238H19.9846C18.8299 14.4591 17.9359 15.376 17.9731 16.4692C18.0104 16.9982 18.2339 17.4567 18.5691 17.7741C17.3026 20.1369 15.3656 21.865 12.4601 23.3109C10.4858 24.2983 8.43705 24.651 6.38828 24.4041C4.71202 24.1925 3.40826 23.4872 2.58875 22.3234C1.39675 20.5954 1.28499 18.7263 2.29075 16.8572C2.99851 15.5171 4.11601 14.5296 4.82377 14.0359C4.67477 13.5774 4.45127 12.8016 4.33952 12.2373C-1.06177 15.9402 -0.503019 20.948 1.13599 23.3109C2.36525 25.0742 4.86102 26.1674 7.61754 26.1674C8.36255 26.1674 9.10755 26.0969 9.85256 25.9206C14.6206 25.0389 18.2339 22.3587 20.2826 18.3736Z" fill="#764ABC"/>
<path fill-rule="evenodd" clip-rule="evenodd" d="M26.8387 14.0006C24.0077 10.862 19.8356 9.13391 15.0676 9.13391H14.4716C14.1363 8.49912 13.4286 8.07593 12.6463 8.07593H12.5718C11.4171 8.11119 10.5231 9.02811 10.5603 10.1214C10.5976 11.1793 11.5288 12.0257 12.6463 12.0257H12.7208C13.5403 11.9905 14.2481 11.4967 14.5461 10.8267H15.2166C18.0476 10.8267 20.7296 11.6025 23.1509 13.119C25.0134 14.2828 26.3544 15.7992 27.0994 17.633C27.7327 19.1142 27.6954 20.5601 27.0249 21.7945C25.9819 23.6636 24.2312 24.6863 21.9216 24.6863C20.4316 24.6863 19.0161 24.2631 18.2711 23.9457C17.8614 24.2983 17.1164 24.8626 16.5949 25.2153C18.1966 25.9206 19.8356 26.3085 21.4001 26.3085C24.9762 26.3085 27.6209 24.4394 28.6267 22.5703C29.7069 20.5249 29.6324 16.9983 26.8387 14.0006Z" fill="#764ABC"/>
<path fill-rule="evenodd" clip-rule="evenodd" d="M7.91554 18.9732C7.95279 20.0312 8.88405 20.8776 10.0016 20.8776H10.0761C11.2308 20.8423 12.1248 19.9254 12.0876 18.8321C12.0503 17.7741 11.1191 16.9277 10.0016 16.9277H9.92706C9.85256 16.9277 9.74081 16.9277 9.66631 16.963C8.13905 14.5649 7.50579 11.9552 7.72929 9.13393C7.87829 7.01796 8.6233 5.18412 9.92706 3.66768C11.0073 2.36283 13.0933 1.72804 14.5088 1.69277C18.4574 1.62224 20.1336 6.27737 20.2454 8.14648C20.7296 8.25228 21.5491 8.49914 22.1079 8.67547C21.6609 2.96236 17.9359 0 14.3598 0C11.0073 0 7.91554 2.2923 6.68629 5.67785C4.97277 10.1919 6.09028 14.5296 8.1763 17.9505C7.99004 18.1973 7.87829 18.5853 7.91554 18.9732Z" fill="#764ABC"/>
</svg>
