<svg width="35" height="34" viewBox="0 0 35 34" fill="none" xmlns="http://www.w3.org/2000/svg">
<g clip-path="url(#clip0_149_679)">
<path d="M7.83028 11.1548C8.84935 7.29556 11.3971 5.36597 15.4734 5.36597C21.5878 5.36597 22.3522 9.70756 25.4094 10.4312C27.4476 10.9136 29.2309 10.19 30.7596 8.26036C29.7405 12.1196 27.1928 14.0492 23.1165 14.0492C17.002 14.0492 16.2377 9.70756 13.1804 8.98396C11.1423 8.50156 9.35889 9.22516 7.83028 11.1548ZM0.18718 19.8379C1.20626 15.9787 3.75396 14.0492 7.83028 14.0492C13.9448 14.0492 14.7091 18.3907 17.7663 19.1143C19.8045 19.5967 21.5878 18.8731 23.1165 16.9435C22.0974 20.8027 19.5497 22.7323 15.4734 22.7323C9.35889 22.7323 8.59458 18.3907 5.53735 17.6671C3.49919 17.1847 1.7158 17.9083 0.18718 19.8379Z" fill="#44A8B3"/>
</g>
<defs>
<clipPath id="clip0_149_679">
<rect width="34.9399" height="33.0788" fill="white"/>
</clipPath>
</defs>
</svg>
