<svg width="24" height="24" viewBox="0 0 24 24" fill="none" xmlns="http://www.w3.org/2000/svg">
<path d="M24 0V24H0V0H24Z" fill="white" fill-opacity="0.01"/>
<path d="M15 11.5L10.5 16M10.6256 16.9322L12.9061 18.5079C15.2307 20.114 16.393 20.9171 17.4042 20.4906C18.4154 20.064 18.6515 18.6712 19.1236 15.8855L19.9136 11.2247C20.4491 8.0653 20.7168 6.4856 19.7927 5.75046C18.8685 5.01533 17.3895 5.63152 14.4315 6.86391L8.8805 9.17661C5.04141 10.7761 3.12187 11.5758 3.02107 12.7884C3.00584 12.9717 3.01595 13.1562 3.05114 13.3367C3.28392 14.5309 5.2794 15.116 9.27037 16.2861C9.61278 16.3865 9.78399 16.4367 9.94564 16.5102C9.97274 16.5226 9.99963 16.5354 10.0263 16.5487C10.1852 16.628 10.332 16.7294 10.6256 16.9322Z" stroke="white" stroke-width="2" stroke-linecap="round" stroke-linejoin="round"/>
</svg>
