<svg width="29" height="27" viewBox="0 0 29 27" fill="none" xmlns="http://www.w3.org/2000/svg">
<path fill-rule="evenodd" clip-rule="evenodd" d="M2 0C0.89543 0 0 0.89543 0 2V24.9923C0 26.0969 0.895431 26.9923 2 26.9923H26.5109C27.6155 26.9923 28.5109 26.0969 28.5109 24.9923V2C28.5109 0.89543 27.6155 0 26.5109 0H2ZM21.664 13.1105C21.6641 13.1105 21.6641 13.1105 21.6641 13.1106V13.1107C21.6641 13.1108 21.6642 13.1108 21.6642 13.1108C21.9376 13.1117 22.2482 13.125 22.4819 13.149C23.4336 13.2464 24.1748 13.6351 24.8053 14.3673C25.1193 14.732 25.2267 14.8916 25.2038 14.9599C25.1891 15.0039 24.9736 15.15 24.2887 15.5805C23.6158 16.0034 23.399 16.1301 23.3487 16.1301C23.2977 16.1301 23.1914 16.0265 23.0381 15.8276C22.7429 15.4446 22.4415 15.2698 21.9756 15.2115C21.4745 15.1486 21.025 15.2982 20.8049 15.6011C20.6168 15.8598 20.5884 16.2763 20.7379 16.5788C20.9112 16.9293 21.2248 17.123 22.4266 17.622C23.8128 18.1974 24.5152 18.5912 25.0268 19.08C25.5777 19.6064 25.8568 20.2142 25.9426 21.0738C25.9844 21.4928 25.9333 21.9894 25.8066 22.3932C25.496 23.383 24.6579 24.1077 23.4293 24.4488C23.0897 24.5431 22.7737 24.5994 22.4611 24.6211C21.984 24.6543 21.3009 24.636 20.8898 24.5793C19.8497 24.4359 18.6756 23.8629 18.0902 23.2132C17.8027 22.8943 17.4358 22.3694 17.4358 22.2771C17.4358 22.2325 17.4592 22.2072 17.5516 22.1516C17.8256 21.9868 19.396 21.1369 19.4265 21.1369C19.4449 21.1369 19.5269 21.2284 19.6087 21.3402C19.7939 21.5935 20.2495 22.0287 20.481 22.174C20.6702 22.2926 20.9121 22.3878 21.1993 22.4566C21.3638 22.4954 21.4509 22.5023 21.8098 22.5023C22.1765 22.5022 22.2518 22.4963 22.4158 22.4546C22.8497 22.344 23.1885 22.1153 23.332 21.8358C23.3949 21.715 23.3961 21.7 23.3961 21.4071V21.2675C23.3961 21.1598 23.3697 21.0537 23.319 20.9586C23.1322 20.6075 22.7297 20.3666 21.4571 19.8448C20.8725 19.605 20.1566 19.267 19.877 19.0988C19.2392 18.715 18.7971 18.2763 18.5069 17.7392C18.2183 17.2051 18.1753 17.0063 18.1746 16.2032C18.1739 15.5746 18.1728 15.5823 18.3102 15.181C18.435 14.8169 18.6903 14.4102 18.9722 14.1266C19.5348 13.5604 20.3567 13.1965 21.2367 13.1241C21.3493 13.114 21.5 13.1101 21.664 13.1106C21.664 13.1106 21.664 13.1106 21.664 13.1105ZM14.0919 13.2346H14.0922C15.787 13.2354 16.7585 13.241 16.7741 13.2503C16.8035 13.2675 16.8072 13.4071 16.8072 14.2983C16.8072 14.8667 16.3474 15.3281 15.779 15.33L15.116 15.3323C14.1811 15.3355 13.4248 16.0943 13.4248 17.0293V19.884C13.4248 22.3843 13.4195 24.4448 13.4121 24.463C13.4002 24.4936 13.2701 24.4959 12.1698 24.4959H10.9894C10.9607 24.4959 10.9355 24.4766 10.928 24.4489C10.9198 24.4231 10.9138 22.3625 10.9137 19.8699L10.9134 17.029C10.9133 16.0941 10.1571 15.3353 9.22212 15.3322L8.54694 15.3299C7.98527 15.3279 7.53096 14.8721 7.53096 14.3104C7.53096 13.5046 7.53684 13.2888 7.55949 13.2673C7.58276 13.2446 8.44584 13.2388 12.1647 13.2353C12.8817 13.2346 13.527 13.2343 14.0919 13.2346Z" fill="#0288D1"/>
</svg>
