<svg width="55" height="55" viewBox="0 0 55 55" fill="none" xmlns="http://www.w3.org/2000/svg">
<path d="M39.3531 38.2121V17.4037L25.6266 27.8079M5.54032 21.5287C4.854 20.7954 4.83112 19.6496 5.49456 18.8933L8.23985 16.3496C8.69739 15.9371 9.81838 15.7537 10.642 16.3496L18.466 22.3308L36.6078 5.71623C37.3398 4.9829 38.5981 4.68498 40.0394 5.44123L49.1903 9.81832C50.0139 10.2996 50.7917 11.0558 50.7917 12.4537V43.3912C50.7917 44.3079 50.1283 45.2933 49.4191 45.6829L39.3531 50.4954C38.621 50.7933 37.2483 50.5183 36.7679 50.0371L18.4203 33.3079L10.642 39.2662C9.77263 39.8621 8.69739 39.7016 8.23985 39.2662L5.49456 36.7454C4.76249 35.9891 4.854 34.7516 5.60895 33.9954L12.4722 27.8079" fill="#4FC3F7"/>
</svg>
