<svg width="36" height="34" viewBox="0 0 36 34" fill="none" xmlns="http://www.w3.org/2000/svg">
<path d="M36 0V34H0V0H36Z" fill="white" fill-opacity="0.01"/>
<path d="M5.25 29.0417L4.53392 28.8187C4.45228 29.0808 4.52041 29.3666 4.71153 29.5637C4.90264 29.7608 5.18619 29.8378 5.45073 29.7643L5.25 29.0417ZM10.2643 27.6488L10.465 28.3714L10.2643 27.6488ZM10.667 27.7069L10.2755 28.3466L10.667 27.7069ZM6.64603 23.9004L6.02663 24.3233L6.64603 23.9004ZM6.71408 24.3403L5.998 24.1173L6.71408 24.3403ZM31.5 17H30.75C30.75 23.5876 25.0826 29 18 29V29.75V30.5C25.8291 30.5 32.25 24.4957 32.25 17H31.5ZM18 4.25V5C25.0826 5 30.75 10.4124 30.75 17H31.5H32.25C32.25 9.50434 25.8291 3.5 18 3.5V4.25ZM4.5 17H5.25C5.25 10.4124 10.9174 5 18 5V4.25V3.5C10.1709 3.5 3.75 9.50434 3.75 17H4.5ZM6.64603 23.9004L7.26543 23.4775C5.98833 21.607 5.25 19.3844 5.25 17H4.5H3.75C3.75 19.7008 4.58775 22.2158 6.02663 24.3233L6.64603 23.9004ZM5.25 29.0417L5.96608 29.2647L7.43016 24.5633L6.71408 24.3403L5.998 24.1173L4.53392 28.8187L5.25 29.0417ZM10.2643 27.6488L10.0636 26.9262L5.04927 28.319L5.25 29.0417L5.45073 29.7643L10.465 28.3714L10.2643 27.6488ZM18 29.75V29C15.4364 29 13.0537 28.2885 11.0586 27.0672L10.667 27.7069L10.2755 28.3466C12.5033 29.7103 15.1565 30.5 18 30.5V29.75ZM10.2643 27.6488L10.465 28.3714C10.3947 28.391 10.3266 28.3779 10.2755 28.3466L10.667 27.7069L11.0586 27.0672C10.7661 26.8882 10.4065 26.8309 10.0636 26.9262L10.2643 27.6488ZM6.64603 23.9004L6.02663 24.3233C5.98999 24.2696 5.97397 24.1945 5.998 24.1173L6.71408 24.3403L7.43016 24.5633C7.54706 24.188 7.47819 23.7891 7.26543 23.4775L6.64603 23.9004Z" fill="#10161F"/>
<path fill-rule="evenodd" clip-rule="evenodd" d="M21.561 23.4833C20.5381 23.4477 17.6411 23.07 14.6074 20.2048C11.5737 17.3396 11.1737 14.6036 11.1361 13.6375C11.1253 13.361 11.1738 13.1072 11.2307 12.8923L11.2419 12.85C11.559 11.6521 12.4508 10.6632 13.6524 10.1768C13.9762 10.0457 14.3683 10.0697 14.6783 10.2833C15.7017 10.9883 16.4398 12.0186 17.0686 12.8963C17.1372 12.9921 17.2045 13.086 17.2708 13.1776C17.5749 13.5977 17.5022 14.1714 17.0891 14.5092L15.6294 15.5329C15.5353 15.5989 15.504 15.7188 15.5592 15.8165C15.8624 16.3535 16.4438 17.2046 17.114 17.8375C17.785 18.4712 18.7305 19.0579 19.34 19.379C19.449 19.4364 19.5853 19.4025 19.6538 19.304L20.6103 17.928C20.9558 17.4937 21.6011 17.3988 22.0701 17.7054C22.1332 17.7466 22.1969 17.7881 22.2611 17.83C23.2151 18.4515 24.2887 19.1509 25.0883 20.118C25.3308 20.4113 25.3668 20.7948 25.2222 21.1136C24.7092 22.2442 23.666 23.0832 22.4025 23.3815L22.35 23.3939C22.1225 23.4476 21.8537 23.4935 21.561 23.4833Z" fill="#10161F"/>
</svg>
