<svg width="91" height="87" viewBox="0 0 91 87" fill="none" xmlns="http://www.w3.org/2000/svg">
<path d="M13.2888 44.234C13.2888 56.395 20.6698 66.9138 31.3752 71.8864L16.0709 31.7223C14.288 35.5476 13.2888 39.7753 13.2888 44.234ZM67.0428 42.6816C67.0428 38.8835 65.6149 36.2518 64.397 34.2045C62.7703 31.6707 61.2487 29.531 61.2487 26.9944C61.2487 24.1696 63.4772 21.5406 66.6368 21.5406C66.7731 21.5406 66.9122 21.5596 67.0485 21.5678C61.3424 16.5598 53.737 13.4985 45.3822 13.4985C34.1687 13.4985 24.3064 19.0094 18.5719 27.3533C19.327 27.375 20.0339 27.3913 20.6358 27.3913C23.9941 27.3913 29.1893 26.9971 29.1893 26.9971C30.9153 26.9047 31.1197 29.3325 29.3908 29.531C29.3908 29.531 27.6563 29.724 25.7202 29.8246L37.4078 63.1103L44.4312 42.9426L39.4291 29.8246C37.7002 29.724 36.065 29.531 36.065 29.531C34.3333 29.4304 34.5406 26.9047 36.2723 26.9971C36.2723 26.9971 41.5668 27.3913 44.7208 27.3913C48.0763 27.3913 53.2771 26.9971 53.2771 26.9971C55.0003 26.9047 55.2047 29.3325 53.4758 29.531C53.4758 29.531 51.7413 29.724 49.808 29.8246L61.4048 62.8574L64.6071 52.6186C66.2337 48.6221 67.0513 45.3161 67.0513 42.6816H67.0428ZM45.9443 46.9229L36.312 73.7189C39.185 74.5263 42.2225 74.9668 45.3794 74.9668C49.1125 74.9668 52.7008 74.3469 56.0365 73.2213C55.9513 73.0908 55.8718 72.9522 55.8066 72.8026L45.9443 46.9229ZM73.5381 29.4875C73.6801 30.469 73.7596 31.5184 73.7596 32.6521C73.7596 35.7678 73.1492 39.2723 71.3153 43.6603L61.5127 70.7962C71.0513 65.4729 77.4643 55.5766 77.4643 44.2367C77.4643 38.8889 76.042 33.8674 73.5381 29.4875Z" fill="white"/>
</svg>
